<mxfile host="65bd71144e">
    <diagram id="QICmH4EdXqMZVVNZZo7V" name="Page-1">
        <mxGraphModel dx="1916" dy="720" grid="1" gridSize="10" guides="1" tooltips="1" connect="1" arrows="1" fold="1" page="1" pageScale="1" pageWidth="850" pageHeight="1100" math="0" shadow="0">
            <root>
                <mxCell id="0"/>
                <mxCell id="1" parent="0"/>
                <mxCell id="11" value="" style="rounded=0;whiteSpace=wrap;html=1;fillColor=#FFFFFF;" vertex="1" parent="1">
                    <mxGeometry x="-130" y="130" width="810" height="430" as="geometry"/>
                </mxCell>
                <mxCell id="2" value="" style="shape=image;verticalLabelPosition=bottom;labelBackgroundColor=default;verticalAlign=top;aspect=fixed;imageAspect=0;image=data:image/png,iVBORw0KGgoAAAANSUhEUgAAAZAAAAEsCAYAAADtt+XCAAAAAXNSR0IArs4c6QAAAARnQU1BAACxjwv8YQUAAAAJcEhZcwAAFiUAABYlAUlSJPAAAFTaSURBVHhe7d0LWBTl/gfwr9Ei7gosIIhc5CKIIoggBiqikSZWWseyo3akC9bRY+rJzMy8m2ZmdtRTelTKyz+lTE/FUTCVFDUhUUQQRZSLAspFXMRdLqv2f9/ZQVhYFBZQgd/necadeffd2ZnBZ777zvvObru+/kF/opqi63niHCGEkNbM0spWnGu4m8VFqBUgDi8fFOcIIYS0Znev/irONdz5Xz/WHSAXtg8UlwghhLRWcrNO4lzDdOozRQiQJ8RlQgghpEEoQAghhOiFAoQQQoheKEAIIYTohQKEEEKIXihACCGE6IUChBBCiF7axH0gKlt3ZAd/iDvtpWKJNvn5Q+gS/ZW41Fws4ffmLEx81hZyFtuKE5vx9kr9b+JpFQI/xpYpvYCT3+H1FXvEQkLIw0L3gdRD9oi6w4NT9BiCq0FTxKXmIX35PUwLtoX0ehqio04j9br4BCGEtFBtIkDuGNYdHpV4iJz7x846p0sTvhJaMvp6xdcRhsjBvg8XYN23K7Dy20fX+vB8bRG++mYZQsRlQgjRB/WB1FOFsVUjWikDYWbMHkoUSFdqSh4lU1tbWMkk4hIhhOjn0QaI6xB4W4jz9eX6LAJcxfkG6vn1mEZN3bbpGyByyIzEWUIIaSUeYSf685iz6TV43zmLsDlLEVWfPgHXN7D0o2fRXXUCK9/9EnFi8YPwS1AcD4GHLWDWJkzvW/MSmgoJX03EMsfPsfN5MySs+wF5w19FsDOrV3IWqycuxVFeTTYQL7/9EoK9bSGvDKAyFbITfsO6f32HC2IR8A5WfD8EnU9+h+nHHDEn5Ck4yTUtDFXuaez4ZIXm+Iqd1rUu6GUewpgPN2jmZc8i9MOXEOgqh5R/vLirQn5aArZ+9hXi7rWe6vl+9zgiIPQdjBvoyFo+mhLF5RPYtV+KcaHUiU7Io9LYTvRHOgpL6jEFC2cPhJOyHiFSGR7IxK5P5yA8TSyvh5oBUrncGN3DXodBuUpcqpvdkDcw3MkKHkP6wA45iDuUiRtQIuPgZkQP0QRIfgFQcfYHLFr3KxTi6yB7HjM/fw1+rIWmunwWsSkKVEAG53690N1Cggp20l/ETvqaEBFP6JdzUGFnhhvHE5BaAnTs7o0AHkq5x/Dee18hu+vzGPuMI+zcn4JfVyWSos6yLWLy2fHfc0h4zzmrWKjLWUidPIvkggoY2nRHQG9LGBacxrJ3VyChIe8n1LVE0KxPMZmFaMX1TPxxIge3KvfDhO23RILbFCCEPBItOkC4eoVII8KDqx4gvCM868VFwjJnJTXAlwHmkD1Z/6t5f936B5x/mCku1YfY2kK11gUXwgPEFhVpv+LtuZtZu6SKpuUiQcaeLzFr62mxlKs6IV/YNR0f/8DSRzyhO/GWzbqPsOwQL+P6YPLqWQiyVuDo0n9g9RlNqWbdNxDx1w+wVVMk0JSjxjpYWL65GguCLZH5w3h8vIuXNOD9xFbPk1qBxzli7CeL8LKrBCoKEEIeiRY/jFeV/BVmLTqEDFkvhC77GME1+0RcX8P8mfqHR00lTk+JcxpWRgZCeMyNvVHvSZabLL66aeRf2qMVHsCrCOrFPslfP4sdWuHBFSD6qz+Qwea6e/9FU1TpcgL+Ve3ED5zG0Uu8TWMImbmmpG7ie147i61a6wAu/HAB+ezRrtvzmoJK9Xi/oIFOkLJ2VcIP1cODy0T4gQs19psQ0pI8HqOw0jboDhEhPJ6Hp6RpwoNT2niIc9qSiyrqnGSSdvCwMLw3jellBSNZR/GVjaVCQYb2CZt3unc0AiquZoqXjGpQ5kBRwh7NLeGnKRGoCjJrnZCTFLzjQgp5V81y3TTvCet++PL77dhZffpmIOzYU1IL7Z+/rM/72clZKJUVIPWkZlnLXfGRENIiPR4BwlWGiJEYIs4vYQ4PD6RhaxOFB7+ZsLyTg7hUf6McZQiyM4KnuaEwjRj5AmycXcRnm8BjdCKtuHwWUVHHdE8x2m2IelNX4DEYvUwIaWKPT4BwPEQ+EUPk01fhzcNj5QJENEF4cCpb3a2P+ojOLsXHcUVY+t8jYklzUuBWGWDYxZEdAx1ktpAbs5M9awHUdyTagymhVrP3NFRh37dfIUzXxDvaG0jJ1gljK7jpagEZG+JJcZYQ0vI8XgHCCSHyAyKiDiGsCcODK3HU7v/Qh3F6vDjXnH7AHxfYmdeiF8aF9BHLKlkiaMpTcIIamQmNuZvdDFb9xVnBr0jKZA/WvRAyxFJT1AQiL/BxXpbwf+157eHDsoGY/KwrDMVFQkjL8/gFCJf2E7Z+uwFRTRgeXGO+iqRSU3eg1yXqXz8gQSGB0/OzsOXzjzH5zSkIfXMWln69UhiBpTj5A5buqtl3Uj+nrt1g/0rh/erHbJ3vYenMd9hyAcK3sNafmpVPXomNi2ex5/h7TsH0jz/HV998rtdXn6i2HkKcgr1bn9ewrnI/Jn+ML1dPgU9ZAXWiE9KCPZ4B0sQkJZoTrdq4cZ+s+XraF/KP6Q+Bcg+WzdiMXWfYtnfphaDggQgO7gNHg3wk/LQZ01fUHLlVf6qt32FXqgqGNr3YOvvBrr3YQ8FafwuX70HcZTWkrn3Yc/w9B+IpJxkUJ44hVlOrgfZgJduPqFSWInbifgx0ApL34PM9fGwXIaSlahNf517i/BQKfF+t1YE+1lXGpvuPpnppbx6W+pmjl4X2d0dt/Gga0pNqDrElhJCWo8XfSPgo+QwdAd9nRohLum1gQTF0/Jtw9tTuzv7hX59CkXdVXCKEkJaHAoQQQoheWvyd6IQQQlomChBCCCF6oQAhhBCiFwoQQggheqEAIYQQohedo7AIIYS0fnev6v91SDqH8RZdzxPnHi6/vp6IO5kkLhFCCGlullbaP9HQEDeLi+gSFiGEEP1QgBBCCNELBQghhBC9UIAQQgjRCwUIIYQQvVCAEEII0QsFCCGEEL1QgBBCCNFLC7+RsAN8/XsgJTahSX9b27aHEYLftUR7qe58PX/sFqLDrotLrYUrXvp7AGyzj+KrPU38Y/SPlUbuZ49gTBlsjKTdOxGj30/SE/LYaNM3Elo+Px3vTJqITyYNhFQsawojplrVGR5cj4EdERRqIS4RQkjb1KIDpGDPanwXWwwz//FNGiKGHdqJc3XjIfKPbxzuO0343BbO3k0ZbYQQ8vho4X0gpTi8fgk2N0OINAVjiyfh+6KpuEQIIa1LCw8Q7vEJEZmhHD0tBwuPlTp1NRTnCCGkdWlF38bbAb5vzsaUwZ2Qf3gTFn2rf8c6v/zUEBIDI7iY+6EHCw9OfacMl4ricJFNfP7rt7KE8nq711G7G+c6P42hT9nDXMLK75TiWtJh/BR3FXc0NTXadYTzUwHw62kF8/YGQtGdcgWunYvHr3FXah0HE0cfBPl5wFauqau6noaj+66j13j/2p3L7eTwDAqEr5MFpLw624aCjEQciD6HIq3/Ofej6bg2Tv4Fu7JdMSKwO6z5yu7cQlpMJH69cAtSB/+q8j/Zfp49hshjNba9mfbTcuAYvOpRguj/ROGcUFLJAoHjR8GzuNoxqasTXWoPv6d94W0rhwG/AqpWIOdsze3qAAe/wRhQffsVWTi8NxrnSoRFQh6qxnaiG9jYOS0UlwWlpUpx7uGys+mMnKv54pI+biP3dBxyzHzw9OAA9DO7it9PX4NafLYh+r1Y1YJ4EAe5F3xtX4aNSQ+xBDB44kl0kjnC1qQXVOpi/LbzkvhMPXVywVOOUtw27oGnHMpw7tQ5XLxynZXbwa6rC+zUKTiXJ0ZIO0sMfPUvGORoDPW1VJxOuoR0Vve2qQ0cnVzhbq3E+bSie8dByk6AY59xgZk6D0mnzyI1Kx+lbFsH+Nqh/ZMGePLmZZxg9QVs3YF/fRFPdWmH/JQknE7LwrVSEzi4dkcf5ydwKeUqa//VhwV6+HaFTG0Clx4mKExKwrmcUkgtu8De1QEdykzQ/2lH3Eo5hTOX8qHqYA0ntu0O7TKRnFumWUUz7qesay/0sqpAxsmLKBRKKknh4OmGzuXVjonwt2mP/HMpyKpMBikLyFeHoIeMfXBIPo2zl7JR0M4aPXr0gLvZDZxKLxaqOQ/9K57vKcWti0k4mZqFrKIKdLQyw5+Z56vWRchDJJOZiHMNV15e2poChNMOkT7tExB99pb4XP3VJ0BMjazxlN3L6MZaHoasBaILL7cz7QUvnx64lHYFN65rTiQPJJykzGDy5yX8NzwGqfmFyM+/igsXb6Nrb1tYy/5EKjt5l7OqlgOfxzNdgZzDO/HD8UzkinUvsRP+FSNXeLo4wbQ4kbWGWOX2rnj++V4wu3UOu8IP4ew1XjcPWWkpuNTeBX2s2X5UO7HydQd1rUDSzz9g37k8VrcQuVmpOF9mjd5uTuioYOu9IVR9AE2AWBiX4dT3ETh+hb3vtcs4m2uEHj1t0bWrKQpjfsIviVeF7ck4r0Sn3o6wkVY8lP1sXIAYouezI+BlnIeY7/+H45n8vQqRczEFVzqw7XLrjCcunEdOhTMGDu0Gee4JbN6fLNTJz8nC2aQ0ZKv+RL0bc4Q0ocYGSCvoA6lNpeafQyWQdmy+DuzenYejk7R+l7q8fNwQMnGUuFR/OUmxuFb9zKLKRDY/Ybc3FPt5urATZ0dAcQ4x52u3Ba79fho5fxrA2cVZU+DSDbaSO0iPr7FepugPdpIT5zXEdeedQ1yNq5qqFNYSgQE6WTdwKHPuJZyu/km7IAs5vIFRloUT1bf/z3Rk888SxnJ0Egqacz8bqX13uNsZoDw9EUk1WhHX2IcGFeToIlwlKIWKb3onB3ga82XRn3dwh9KDtFCtLEA6wP1v7+ODoV2hPLkFc8POi+WPXseOMnGuvm6hqFaD7BZu8pOUTA4zYbkjTNiH6fK8qxA/H2v7swhFvAEmt4A5e7CU8zNXEa5e4U/W8OdtcaaSZt3o3A8T//4mplSf3vEHPyeayPla6+/mjZo7VIHbPOvVt9mcttv8pCoxRHthqTn3s5FMOgph3t4tWPsY8emlnsJzxhY8aK8i9ng6bhp2QeD4N/HmK4Pha9+RxTAhLVcrCpBq4XF6C2atPVarU5Vwt3Gn5tn6PspzkhFzLFb3dOaqWOtx1LD9bKyiiyd0HyM2xV7U9JCrLh7Gtm93IvL0FSg7OMPvuTGY9Nd+sH7wbUeEPJZaSYDUCI9/tZXwYC2SMvbpt3MX4ZN3Le3MYd4RuFOYL3xyLy/nn74tYKlr4EX79jU+DVegnLUO2j9ZigvJ55Cka7rS8P4l/TTnflYyhnnNlYvrva8y1opiD7I713UfIzal5VVLMvUtpMcdwA/btuKH+ALckXtg2AD6VgPSMrWCAGmr4cFdRWpmKSDvicAeHcSyKtYD+sC2XQWyMjTDiG9mXcVNGKJ7H82llSoGcAjwgLW4pJGFizl3gM494ddZLHpkmnM/Wf1bvHOiI6zttdct7e3G1isu1KUkHekKlkvOXvDUfrMaDGDAh2LfcwcFpy7hGpuTdXhQShHyeGrho7CaJzzqMwrLQd4H0mo3DD5I3tXr+HXPMXHpAXQNFRVZdveGk8mteyOGSi7noYNLT7i4eaCHtREM2xvDwqor+gwOQoBDB9xMjsSuRHElqnyUWvaAq70D3F1MIWknhblQ92n4/HkDN0yMIas2Oqnoqgq2PVzg0qsXXOQStJPJ0dnKEk49fTEw0BF3z6TXGLVUF80orPb5qThzpXonuDjKia3lbFK21t/uYe7nHcVtlpOOsHPoDqeOT+AJY3M4eQ7CUJe7KKyQoWPZ/UZhlSGn0Ag93J3QvbcrbI0kkJias+Nkix6e/RDoa4qrKbls31zw4sRn0VtuiCeE42gLjwAvOMsqkHr8GDJuCmsn5KFq06OwLF+crgmPpB2Y24Qtj4rSBw+LUd8V70+op1u3mimY/yxAzPf/xa/nC/Akby0M9EfgQHZieuI6kn77L7Ydq363WwXSonbjf6evQilzhi+v698d8qJT2L33Uq2ObKjS8NOuaMTnqGDazYutl9Uf0A+e9oZQJCWyNspD1Jz7WZ6O//0Si6xiA1j28BH2073jVezfdRwFd8U695MXi+27YpFWZADrXprXBw7wQvdOt5GVmAbNlhUhM6ccJk6Vx5FtuyQPcT//jOhsoQIhLU6L/zr3wUP9kXjgNyjEkqbAv8496C0LGHd6UiypjX9diWfn4ehi7CaW1O3Xvcew7stw3CppqogjhJDGa+yd6K3oq0weDX6Px+T3xqGbq71YUuXMqQvYuuknJJ5KFUtaHwNpR8juNxb1TiluqrS+eIUQ8pigAHlMDH9+oBAkso4doLxVylocO7Cvvn0eLVjP599EkJ24oEur/4EqQlouCpDHSEdjKQYGeuNYTAJdriKEPPba9C8SPm54aPBWB4UHIaQtoAAhhBCiFwoQQggheqEAIYQQohcKEEIIIXqhACGEEKIXChBCCCF6oQAhhBCiFwoQQggheqEAIYQQohcKEEIIIXqhACGEEKIXChBCCCF6oQAhhBCilxYeIB3g6+8NqbjUVMq79kb2tP/i8qxfdU7Xn5sp1mxp+mPOhi3YuXysuPwAExZj5451mDNIXGZHevTCTdj53RrMvFdGCGmrWnSAWD4/He9MmohPJg1s0hAp+Mti3DWSiUu1KT2ebcEh0hhydJSIs4SQNq/l/yb6pHl4w98UN2K3Y+76Y2iKX+LgrYym8OTNazA7+B90SHtcfpmQt0AmwbsoEmNmh4tl98FbIM9ZIuHryVh2RCwjhLQabfwHpUpxeP0SbI4thpn/+CZviTTWbRNrKAb+TVwihJDWpRV0oj/eIaK26ibOEUJI69JKRmFpQuSrw4VCiCx4s+k71u9H9uQTeKpze4x17YhpvU2ERyeTJ8Vn9XCv81oKvzfm4atNW9gym77bhI0rpmKkq1hPMBYr2HObZ/YXl6up1QlejesIzFyxBtu/E9e96Qt88oYv6u750QiYuY7VX4wQcbmSrNdI7fXxbVozFcHi84SQ1qeVBAhXivhvlwshYjV44kMLEQ9zQ3wZYI45feUsOGTws+ZBImNlFviIlfFw0ZfEbzamD7bEjcQDiNp3AEfTVJDZ+yJkxgwEPehMfz9P2GDOjLHwQCaO7GfrPpSIbHSC2/BJWDDBRaxUf7IhM/Cvua/Az1aCvIQYYVv5Om9I5LAS6xBCWp9WFCCcdojM+WsXsbx58PD4xN8M0Tml+COvHGevq/He0SLhuTVnbqIde9wQZIEOHY2FsoaRwqO7ApvenYa5a7chbPM2rF44DYuiCwG5F15+y12spwd7d1jGLcEbs1ZhHVtv2H9W4b3p4UhWSuA0bBxGi9XqRTYSH73lBbk6CxELJ+O9lWHCtgrrnLwEW8VqhJDWp5UFiIZKrWb/SiDtaKopaAa8ZfGRrynC026xSYleFhIcZEGSr7ojhIkHW16deBMFpXfx2uzF4qsaJv9EOKKV4oIodeMhpLLds7Lv+8DLTXUqS0P05ovigkgZiV2JLJwkNugxRCyrB9nofnCTqJEasRxb08RCQkib0MoCpAPc//Y+PhjaFcqTWzA37LxY3vRGOnUQQoT3d/z0XGdhnvd/8HneHxJk2wHfPWsJR+Mn0TsgCObWDR0up0JOWq44X10hVGXsQW4Jb01BwxXkIlqcrS5ZwdNKCrm9Zrk+vDtbsn+LkRPbFAOoCSEtSSsKkGrhcXoLZq1tmntC6uJsIhEuXc2NvYGIDBXyS+8I83z65lyJUKdyOefSBdi5uAllDXJHfNSlTAWFONtgd9Wo0bCpRo2Kup+sQwUqNFfuCCFtSCsJkBrh8a/mDQ+Otzj45arkogoob99FgequMM+n2LxyoU7lcmlJCWxdugtl9cdaAo46hgHYu8PWmJ3mFTlIFos4mZmDOFclQGgd6GBugwBxtrqRDjbs32IUNOBSlKKcH2lLOA3XLBNC2o5WECAPPzw4HhpWHQyEvg8pCxOppJ0wzye/zu2FOpXLRh07IufiBaGsIZx8xsFDq6NDipGv+8KKtRLSTx8Uy4qh5Je0OjtgZPW6shF4pkcd49CMXfHMyBr9Q66hCO4lAU+PmAZ8IUByVAryIYHbsEaODCOEtDgGNnZOC8V5QWlpg69fNAk7m87IuZovLtVX84RH8cAJ4lzdbDsaYKSTDM/YdYCbmQRm7Z8Q5vnkY6kJkMplE/NO+GXDGpTe0lzaeiCvp/GqqwyK2/YIHuELGws7ePTph1Gvv4NhzkZQZ/2KNWsTcF2ofBF3ugXB39GevcxHU9dvKEJCh8KkpBCyjhJcO7EHRy7zuvYYNNIXXSpUMPR5AcE9LNGlmwd8Br2C6X/zglm7YiT83xfYmckHITDidlS9Hug64AX426hwYddvSOQFRQm4JPXBIE83+D0bBK+uneDk7sXWOQIhbwah854YTT1CyGNHJjMR5xquvLy0ZbdALF+crgmPpB2Y24QtjyeEyzL3F5FRKrRC+Cisl/bmCfN86C6f56OweP/Ia78WIONGGZKO/oaiazniK+tLjYzvV2F3pgzew4YieHggPCxUyI4Nx6LZ4UgVa3FHV63B1pO5UMocEDCc1Q10hProWsw6VceHgaLf8cHm46iwD2TrZfUHOADXLyJq1WwsO9Two5i6bTmWhccju0wKtwF8W9nUzxGGeWlo6LebEUJajpb/ZYpD/ZF44Df9O5R14F/nfn3EB7ht2lks0Y1fquI3C/JhvM4mTwqXsXiIbBjSSXj0Nwc8LZ7EwjHP1r/1wdGXGBJCHoLGfpliCw+QR8+1jy9em71EuFmQTzwoKm8c5C2P/1s+r2HhwVGAEEIegsYGSAvvA3n0iq7lIi7qF6GTPO9yBm5XVOBUdBSiNq/H/u3fCMsNpqPvgRBCmlqb7gN5XPAWxpmj0YhkobFx7j+Fx7TT8eKzhBDSOlGAEEII0Qv1gRBCSBvVxn+RkBBCyKNCAUIIIUQvFCCEEEL0QgFCCCFELxQghBBC9EIBQgghRC8UIIQQQvRCAUIIIUQvFCCEEEL0QgFCCCFELxQghBBC9EIBQgghRC8t/hcJff17ICU2ocl+zpaTdesA+xAbGHTQna834m8i94dHc5wIIaSptOkvU7R8fjremTQRn0waCKlY1hS6vl53eHBmviawefX+P3dLCCGtXcv/TfRJ8/CGvyluxG7H3PXHmqQl0muFqzjXOBU31Mj7pRA3z94SSwgh5PHRxr/OvRSH1y/B5thimPmPb/KWSGMZmklgOcxcXCKEkNalFXSiP94hYmTTXpwjhJDWpRX9ImEH+L45G1MGd0L+4U1Y9K3+HetNdQmr0tlZaeJcfblg5PRQjOpjA7mRpkStuIior5dgq3CIxmLFjhGwOhmGdYVDMXGYA+RPqJDw9WQsO8KfN0XAW9Mwzt8BVsYSXsBWUIzUqPWYuz1Fs0wIafPoFwnvKUX8t8vx1eFCWA2eiAVvej/0lohpe1NM7fMP4VF/UoxePBsh/paoSItB1L4DiPr9Im5ILGEnF6tU6voiJntmYcvU1zFmXGV4uCBk+ReYPswFZuosHOWvZ9PRdDVklo3ZLkII0daKAoTTDpE5f+0iljcfP+t+MDLQNBOspZ3vhcdT1r73yhtmFPxdWavhymHMWhaGsM3bELZ2CaZMn4evT4lVRDK5Avvmh+FokVjAeE+djJEOEihY6+TtKUuwmr+eTasXvo/3Vh8XaxFCSOO1sgDRUKnV7F8JpB2b9xP3SOcXMMxhKORiaHRmAVJcflOYD7QNxN/cx+sRIoVQKtmDtSvG9qrWhlIWQ8HLq7uWiV+0yvpjhGcnoCgeX6+MQc3qhBDSlFpZgHSA+9/exwdDu0J5cgvmhp0Xy5sWD4WJnm/By9ITv6TvwTWVpt/I0aQr8th8cXkx/u/cd5AbyoUQkXVsyMW0AwjfdxFKAwcEz12HzWvmYfJzXqh59YpTFmXVCAkHyI0B9dWLSBBLCCGkubSiAKkWHqe3YNbaprknpCYeHjwUeDhsSvoGZwrOiM/wPhA5rik1YcJDpTJE5q6eBUeXrkJ5faTuXII3pq7CjlgWEFIXBE2YgY1fTUWQTKxQ6TZvadVWcZvaHoSQ5tdKAqRGePyrecKDG9XtBaGvg4dDZcuD48Fi2t4EWSVZYklViHTsKMOMpe+KpfVUlIjdq+djysRpWH2kEGpzX4RM7i8+WRclKlimyGzc4SGWEEJIc2kFAfLwwoM7f+OC8Mg7yavrLLMSHhXlxcJjpe5m3dHJ2gLxR0+LJQ9iCrnWvYfFOLrlNHhUGZp00hTV6SDiLrC9t2RhM8FFLCOEkOZhYGPntFCcF5SWPprLH3Y2nZFzNV9cqq/mCQ+rYRbiXG28j0NRcROBdoOEzvPUG5p7PLw69RY60X+7ckhY5ngnu1+Xfli//Bv88t0esfRB/oLFm6bgpd726OLYEz59+mHU+AC4dCzHub3rcTiNX7bywLBXXCG7Go+ffs/WvEygxoWTJXAN9EVPz8F43s8ZXWxd4MXWMWLM3zDaswT74qrXJ4S0ZTKZiTjXcOXlpS27BWL54nRNeCTtwNwmbHncLbsrzunG+z1453lvy94Y5fy8UMaH7+ZXu6TFw4N3sv83+RccjjwqltZHFlJz1DBz7Y/g4UPZFAg3o1xEf/MFFu2txx4qY7Ds4/WISi0ErL0QJK7Dw7wCmWlVl9cIIaSxWv6XKQ71R+KB36AQS5oC/zp321c7Q2Im3sVdh8oA2XbuOzzrMAypRRcQk3NECBN+QyEPjz2r9kF5qVR8BSGEPD4aeyd6K/oqk0eDj67KvHgZOw5/I1yqqmxtVJYTQsjjir7K5BGrDInIHw8gJaHqvhMKD0JIa0cB0kS2rt2OgmuF4hIhhLR+FCCEEEL0QgFCCCFELxQghBBC9EIBQgghRC8UIIQQQvRCAUIIIUQvFCCEEEL0QgFCCCFELxQghBBC9EIBQgghRC8UIIQQQvRCAUIIIUQvFCD3YSIFnuoO9LQXC0QNLSeEkNaIAuQ+eBD83wdP4OOx2oepoeWEENIa0ZmOEEKIXihACCGE6IUCpAEq+zh62LcTlo07UJ8HIaTtogBpgHt9HH/VBAj1eRBC2jI6893HTRXwxwXg3OU/tZZrTpXPE0JIW9Kur3+Q1tmv6HqeOPdw+fX1RNzJJHGpZfJzA7bNfEIIlb99flcsbTrmvQZjqI8DLKUGwJ93oCrKQnz0YSQViRVggcDxo+BZfBRfxVQgMKg/3Dt3gAFrMN1RpOPg3sNIK2HVbAPw5guuwPkofHv4qual93RB0IRg9KxIxI7vT+HeqgkhrY6lla0413A3i4uoBaJLZV9Hzamyr+NR3O9hPXAMxgU4Q3bjAuKOxSLmj3QoZc4IfOUv8JOLlSq174aXRgfAWnEOx36PRdz567gtd8azLwVA+O+Sk4wUBSB17KZZrs6uG5zZ/l07l0zhQQi5LwoQHSr7NmpOlX0dD73vw9Ifwzw64ubZ/+Hb/8UiPvkckk4fxQ87Y5FzWw5vXwexosjSAojbjR8OJyKJ1Y0//AsiU0tZYjijdzdeQYFzl1iCGFUuV3Hu4Yz2f15FSlKFWEIIIbpRgOhQ2ddxPluzXMLOvfXp66jZZ9JUbHt1gwkKkHSiQCwRqc7hUj5gYNUFlmKRQHkJsefZRleTcyUfd2CA9kaa5ZtJabj2pwEcXJw1BVw7Z7h1NcCdrAs4R906hJAHoADR4dwVTR/G0nBNP8a95e/vf1atb72GMpEZsn8tMfCNNzHl79pTIL8GZSxHJ6Gm6MZ1XBNn72HppmQPxnLWOuHKk5GSw8LH1hGumkFlgFt3OEtKcSE5XSwghJC6UYA0gQf1mTSJ8qs4zfs+dE5nwbKgwc6lZuGOxA4uwmUsQ/Rx6wIoLuC0PisjhLQ5FCBN4EF9Jo1VXn4HaP8klGnnhD6N2tMV3BTrNsjFc7hQZgBnN1e2/u7oZk2d54SQ+qMAaQL69pnUV3pmNu7AEp79tHo6msBVpGayjbXtBr8+rrCmznNCSANQgDQBfftMdDOEa/BrmPLOX+BXmRcXj+NwdgVMer2AiWMGw8+jJzz55BeAl14Zixd6iPX0kJN4AUXtrODZU06d54SQBqEAaRFKcW7vz4g8fRVKY2f4DvRHIJsG9rSD4Y1ziL8sVtOHIh3pCgO0b0+d54SQhqE70e+jrjvLG1pOCCGPI7oTvRnVdV9HQ8sJIaQ1ohYIIYS0UdQCIYQQ8khQgBBCCNELBQghhBC9UIAQQgjRCwUIIYQQvVCAEEII0QsFCCGEEL1QgBBCCNELBQghhBC9UIAQQgjRCwUIIYQQvVCAEEII0QsFiJ7aS58QJkIIaavoDNhAPDT6vShH6L/thYnPU5AQQtoiOvM1QI+BHfG3FbbwetYEx8JvCBOf52X8OUIIaUsoQOrBtocRXl3YBUGhFjh/TIltH2Qj8debwsTneRl/7sVZnYW6LVd/zNmwBTuXjxWXW6KHsw8BM9dh547FCBGX60U2Ep98y7btq6kIEIsIackoQO7D2OLJe8FQUfonflh4Fcd2FKFcVfVztXyel/Hn2rVrJ9Tlr+GvJUSLuQyG4iwhrQEFSB34JalXF3WBrZsRotYW4KfPrqHwcoX4bG38OV6H1+Wv4a+ly1pEy5VwzHrzdYyZshZHxSJCWjIKkDoEjDfXXK6alYP0BJVY+mC8Ln8Nf+3AcWZiKSGEtD4UIHUw7NAOmTWCY+A4c/R70VSYd/aWCper/vGNgzDxPhKvYcbCcxx/LY3OIoS0Zu36+gf9Kc4Liq7niXMPl19fT8SdTBKXHj0eCj+vyEPO+TKxBHjpQ2vh8eiOIiEwMlhIpB5Vorz0LhxZoPAA4ZeweCuEd6bzgPn6rSzhNQ0yYTF2PmeJhK/fx8Fu7yMkwAVWMlZ+Vw1FTiJ+2bgWEWmaqgLz/gid9goGOXeCTKIpUuYmYtf6Vdr1GFmvkZj8+jD42JpCIuabsiAe4dPWIkrogJ4E76JIjJkdrnkSUgTNXI7JfU2hTIvAp/N/RCor83gxFKHBXrCTi2+oLkZG9FYs2hwPpaZEo3LbXNm28fe7W4zsmF+wz/hlhPYF28fJWHZEU5VzGzkVk56rWq9akYtTe8OwMuKisPxguvaB07HNdR1PTuaO0RMnYEQfG8grx0UoCxH3/ftYuV/TiT69bwEixs3HVvFp2ZAZ+NffvSBXXsTuz5ZgR8111rFtNfeZH8vUqPWYuz1Fs8zIB0zAzLED4Gwh1fzd2LYrr2fhyLYvEHai2gede/93ZiPG9X28PsQBwmrvqpD9xy4sWn0ACk1NQmBpZSvONdzN4iJqgejDROwgP/FzsRAWPGR4R/r5Y7dg0VU8CTQBid9sTB9siRuJBxC17wCOpqkgs/dFyIwZCOKBIgqZNQnBrlLcOBMj1ItOKoShjRerpz3aRzjBzX0FfrYS5CVo6kYdSsQNiRxWYh1tUvi9PQ8TWXio0yPF8GAGTWInM190vpuFo3wd+44jo8IUTsMnYcF4G+GVAlkg5ixl2+bGXp92XPN+sQXo6D8BIb1rHyc3dvJbMF57vdkGNvAbPxufjJaKtfTBQnDGcixg22xnUICEQzWO57zFCHEVq3J8u1d+iHH+NpAUJCJa2JYYJBRJILcU69Qg6xeKT95i4VGWhQid4aGbbPQ8zT6XpYnvcxypCgk622hauhw/Ll9PHQo3YzXSYzXbHp1QAFi4IJjt15whtY+N5fNLMN0fSI7WrDOjVAo7dtwXvFXt70NIIxnY2DktFOcFpaVanx8fGjubzsi5mi8uPXr8BsHUY0qUFN4WS4AeAZpO8eTfStBzkDF6sxaHE2t52Ht2gFkXQ2QmlAp9H5xJpyeFTnQeMg3m9TRedbWElXEWNkyfj7CjZ5Bw+gziDkUi2XwQgno6w6HTBez9g51EePXebojb8BHW/C9BqBd/5Cgqeg6HV1cLtL++B0cyWSXZSCyYFwQ7dnKOWDwTK8S6CSePY9+eGCQKa7LHoJG+6FJ6ETsPJLMT1zx8+Kw9kBWJRXPCNeHBOXjBq+QnfLQkHEf4Ok7HY/85Cwx52hl27Fy2d/8ZqFm1gOmz8ZIzkLF3Oaat+VXzfn/EICLFCH6D3WBmoMa1E2z7LrPK9mPx4du+MMk9gEXvrcWeyvVGF8H1aV942FngXGQ8Hvw/RHsfBIOmYsFLDmjH9mPB9NX46WTV8Yy67owhT7nB3e5JRP2WwrZbitHzZmOY7V223csw5Ys9iBe2JQFH9keycNassuuAF+Bvo8KFXb8h0XUsln4wFA5gx3Ypa5HUGR61t23c30LR0ywX+/+5CBtOaPY5OvI3HDmfh7JSdhTF42JRkoh1/6z6vxD/+0H8lGSEfgEe6OlijYt7/8A1vkLx/44J+2ute38ZwsV1av4+DuhiIqvncSRtgUxmIs41XHl5KbVA9FFy/bZw/we/kTAntRxGUgPhhkJ+yYr3kzSV/BPhiK6R56kbDyGVnVes7PuishGyddVnNS7BqBCRlcsepZCz8z8nG90PbhI1UiOW3+cEV8Vt5IeY+ZwDC48DWMaC4l54cEfWY9HGGpeq0lKQU8Ie2Ud0b6GgPwK7szQpSsSObTUuP6WFIypFu3/JLrgfnPj2Hdqm/V7KGMSms7qWNvARixpq5GB3dqyKcWpnjf1glIfW40gWa+259sbLvEA2Cv6uEtZiisKimtuti+sILJgxAk4sPKI+q9+xrS5fyY+DJdzG8G2spIKiSHN87h2X6PW1/i/w4/jLGVbP3BXPsNZGddlxNeqzFuAF/nnDSFpHa5OQhqMA0QMPC1/WQuE3EvJLV3z47qYpl5G4v0SrI71xVMhJ4yFQUyFUvFvm3omakdkgaPQkLFi6GF+u24Tt327CTn7yr8a7M7/2UoycWO0Tt07mAzBzPDuhFcRj05JtSK554mLkXiMQOnMeVqz4ApvZ+23/bhK8tXbdAXK2rL56EQliSXUVVQ07gaMpvwwjgceELdi5Q3ua7MWfs4TdIKEqQpbXrnO/GwfNOkqAshyknhQLtKiQXsiPiRxW/CTsYyOcYG9c+V07IHWyxKAZY+EhK0TcN8sRdrYex7aGqJ0HkVoigdPwD7F50xf45O8j4F3tM4jmuNT9dzuax1PBFFaspVdFhYJLNeun4AYvMpbDTlNASKNRgOiJBwWfKm8Y5J3mtm7tUXil7ntFGuyO+KhLGfuUyh9dx2LFvz/F5DH94WTMPjnnpeDI4cOISCwUqmmrQEWROHs/ygLksbOnRO4Iz378BFYd709Yg42zxyK4tyUkaiUyTh3Gwf3HkcFbIDVU3H7wabhKMVL3a67x154OIpZfimN+2fAZFi2rMW2I1DzZRCrU9elqViGvgJ2VJaZw8vSt1oJogLQfMfedaVi2Mx4ZKinchozFnLVrMFNHvwYhjxsKED0IX2PCWhv8ctWEz22FEVv88hXaAdFh18VajSWF3FHHScTeHbb8k70iB/wqesCLg+FkpELCfybjjWkfYdbCVVi3eRt2XdMOMkU5//hpyT7papbvqzwNcz+LRAY6IeCt2QjtVW07ZKMQ3M8U6isHMDdkGt77eD4Wrd2GsM0pOkf3yDq76vzEa2ak3Ymu2T4p1Nf4unRNPyL6ilg3PQXJSTWm9Lr7mm7cUgNGtnDrKxZokcK5E9s/dQHSY9miQiW0PDo7PyM8e39KXJj/BSKyAKsBIVjwRvXLUA1RjITdazFr2mS8vfY48u+Ywm/8JGEARGYxPy6msPXXHSgBQsuyEDmPzwBG0oZQgNSBf3WJY58O4lJt/NIVH6LLh/ryKezdK/hhwdV7d6vzYb18HY3h5DMOHlpnJClGvu4LK6iRfvqgUOJsxk8sCuRVH8oJF4R4aY+2SY5KQT4kcBumPYKrTmnhWPRNPBQGDgj+cHbVKCVPS/DbIyuKsrT6E2TP9Ud3rUtYMUjlV+CsfRFS49O0rFcogntpB0jy75lsL9j2DZkAN7GsqUTEpbFTvSl8xoyttW7ZkEkY5MDyI/M09vGCpANIvsb7RIbpHN1U20VsXbIVcUX8MtQMLJjgIpbXj9y8arQVp/h9K07x3nAjmXApLTvqNLL5cQmaVPvvxlqfo3qzbSxIQwwFCHkEaBRWHVTFd9D3BTl6Pd0RFao/0V72BHoEyJBxSoXc1HKxFoRRWny6o9aEBb/B8IX3rWDdzQhHtxfpd0lLGEkjg+K2PYJH+MLGwg4effph1OvvYJizEdRZv2LN2gTwts51Rz8Ed7OBQ4An7KwcWL0BGPeP12B3txgymREUaT9h/xlWsSgBl6Q+GOTpBr9ng+DVtROc3L3gM2gEQt4MQmdhJJb2KCF15h+ILtKMUvIK8EGH5N+QeMYEPiO8YGffAwOcrGHX3QP+z72OdwfJcLNUyj6B5yEu4jguowQJpfZ4tp8DnHyDquoOHYd3XrWHIvsuzNi5894orKvJUDoNgl8PdwQN94OrjQ26e7Lt8xuKl8ePwzgPBSKOZ/Oj8wA6RmGlJ+AmX3dPD611B740EZOHO0CmSMSGBVtwgQ8dQxHi08XRTU8Nx7OeNrBy7AkfdlxHTQjBsE6akVhao7DUWfj9cBFcA33R03MA+klT2DEvgt34xVg/5w0E2+WxEOPbXnvbXl2wAe+N8oRDZ/6382LHcjyGuEpRdp79jWMuQn3zDDJ1/N34cXx3nA+s/sxCxOefY1/lpUnx/86941qN19C/wE1erNlmsYy0bTQKq5nwezq+n58r3ONR+YWK7aUGOH9Ud8B26moo1Ameaim8hr+Wr0N/amR8vwq7M2XwHjYUwcMD4WGhQnYsaxnMrhpNlP1NGLaezEWF3AUBw1m9Ye6QnNyGj0/UvqCUum05loXHI7tMCrcBfJ1s6ucIw7w01PUBVnloFVbuzYJa4oCRc/j9Egew8j8HkKGQwK5voLAOP+t8RKz8GTnia+45shb/XHUAqQXsA4JYd1A31toIX4Nfan1WUCF65Tys3n8R+U/YwHuIuH0D3dH5TiaijzTmlMfXPRsrf05hn+Yt7607wBnIOxmBlTNX1RixxI7xZz8i7ooKMtf+mu0Y5gsnSQEunBXr1KSMwbJVkcgoYy2R52ZjRT1bIukXcqE2Fv92bApylSD70DZ8+knkvU781G3zWWswhq276u8W5C2HMi0GYUvuN2yYkOZFd6LXA+8oN7F8UggG3lnOL1NVfiMv/7oS31Gmwsgs3jI58bNC6+51vdy7m1j7Lu3WJGj2Okz2UiNu9TSs5H0PbUJdd8kT8mjQnegPAb/vg4eC8PXub1loflRKHIXF5519pELnOR/O2+jwaBO84GMvreq4bjPEoc0Vj+YyMSFNjQKkAXiQ8N/9OLP/pjACi098npc17nJV2+I24WX4mFfruG4jZGM0I9Ky0zQDIAhp6egSlp4qv2m3+o9LNZnWcglr/Dxs9pci+/JFZBTywQQy2Hl6wcOGtT6UF7Fj0RLsFofmtlYB0z/FqLspSIUrBvk7QHYzHqsn0++BkMcDXcJ6RHhwNEt4tCZXMpEPOZy9NR3owcP7w8NcjeyTkVg9q/WHB6coA5x4x/cAB+BaIrauovAgrQe1QAghpI2iFgghhJBHggKEEEKIXihACCGE6IUChBBCiF4oQAghhOiFAoQQQoheKEAIIYTohQKEEEKIXihACCGE6IUCRE/8u7Aqvw+LEELaIjoDNhAPjX4vyhH6b3th4vMUJISQtojOfA3QY2BHzW+BPGuCY+E3hInP8zL+HCGEtCX0m+j1wH+FcMS7luj1tDHOHrqFqLX5wg9H5V0qZ8slMJQaoP8rcti4GeHW9TvCb6S3TPwX85Zi2kCjqt8TbwG8//EF1s54Ff3ax2N/UolYSgh5EPpN9GYk/AKh+HvoFaV/Cj8cdWxHkdbXuPN5Xsafa9eunVCXv4a/ljwcMolEnCOEPEz0de514JekBo4zQ4UQEDeQnqASn7k/Z2+p8DpD6RPC61rWLxXSb3YT0pbQ17k3k4Dx5uzkr8S2WTn1Dg+O1+Wv4a/lQUIIIa0VBUgdDDu0Q2aN4OC/gd7vRVNhnrc0+OWqf3zjIEyvLuwCr2HGwnMcfy2NziKEtGZ0CasOPBR+XpEndJZXeulDa+Hx6I4iITAyWEikHlWivPQuHFmg8ACJWlsgtEJ4xzsPmK/fyhJe0yD3fhP9fRzs9j5CAlxgJWPld9VQ5CTil41rEZGmqSow74/Qaa9gkHMnyMTuAGVuInatX6Vdj5H1GonJrw+Dj60pJGK+KQviET5tLaJ0XsKSImjmckzuawplWgQ+nf8jUlmZx4uhCA32gp1cfEN1MTKit2LR5nhoDcOo3DZXtm38/e4WIzvmF+wzfhmhfVHrd9/dRk7FpOeq1qtW5OLU3jCsjLgoLOuk6zfkZb4I/WCc9jG5t58imTtGT5yAEX1sIDcSy8rY9p2OxPrVkWw/K43Fih0jYHVyPf75uwvmTBgMJ3H7lLlsnUvZOouERUJaFLqE9QiYiB3kJ34uFsKChwzvSOf9HRZdxbNVE5D4zcb0wZa4kXgAUfsO4GiaCjJ7X4TMmIEgHiiikFmTEOwqxY0zMUK96KRCGNp4sXpTESDW4WRDZuBfc1+Bn60EeQmaulGHEnFDIoeVWEebFH5vz8NEFh7q9EgxPJhBkzBzrC86383CUb6OfceRUWEKp+GTsGC8jfBKgSwQc5aybXNjr087rnm/2AJ09J+AkN61j5MbC4IF47XXm21gA7/xs/HJaKlYqz68MP3TqcIxyT+hOXbRJ3OhtrCs2k+2bTNXfIhx/jaQFCQiWny/VJUUdv5jsWD5WLiJVe+xGoHPpwwAUg4L6zyazv4eNiyoPp4AO7EKIW0JDeOtA79BMPWYUmtIbo8Azb0eyb+VoOcgY/RmLQ4n1vKw9+wAsy6GyEwoFfo+OJNOTwod8TxkGszrabzqyk52xlnYMH0+wo6eQcLpM4g7FIlk80EI6ukMh04XsPePAk313m6I2/AR1vwvQagXf+QoKnoOh1dXC7S/vgdHMlkl2UgsmBcEO3Zyjlg8EyvEugknj2PfnhgkCmuyx6CRvuhSelEYxus2YR4+fNYeyIrEojnhVZ/IHbzgVfITPloSjiN8Hafjsf+cBYY87Qw7dp7fu/8M1KxawPTZeMkZyNi7HNPW/Kp5vz9iEJFiBL/BbjAzUOPaCbZ9l1ll+7H48G1fmOQewKL31mJP5Xqji+D6tC887CxwLjIeOv+HCMdLVrUu/1cxMcgGd85sxZRVEZpj8vtBRBw6hazScvA2Jd+2l7vxbVuGKV/sQbz4ftF7D+C60yD49XSD7RMseFL4nnhg2CuusDJth3MbZmH+DyeFdcZFp6JTAGuNdDFBxwu/Iu7xHIVOSJ1oGO8jUHL9NrZ9kC3cSJiTWg4jqYFwQyG/ZMX7SZpK/olwRNfI89SNh5DKzmlW9n1R2QjZuuqzGpeqVIjIymWPUsjZ+Z+Tje4HN4kaqRHLsbXGZS1d3EZ+iJnPObDwOIBlLCiqLucwR9Zj0cYal6rSUpDDb8GQW8JbKOiPwO4sTYoSsWNbjctPaeGIStHuX7IL7gcnvn2Htmm/lzIGseyTPixt4CMWPVCOAnzsm8zBF8HV/xxFxVAIMyPwTK86to0du+h1vyMDErj1GSWWia6cwOpD1bf7Io6kF7JHKWQWmhJC2hIKED3wsPBlLZTEX28Kl65++uwaNk25jMT9JVod6Y2jQk4aD4GaCqHiH6HvnagZmQ2CRk/CgqWL8eW6Tdj+7Sbs5Cf/arw7W7J/i5ETW48RZeYDMHO8O2QF8di0ZBuSdTRK5V4jEDpzHlas+AKb2ftt/24SvLV23QFytqy+ehEJYkl1FTXutXQ05ZeoJPCYsAU7d2hPk734c5awGyRUfbAruxDxeyHUci+EfrUFG1fMQMgQm3uBC5hCZlT3tkGZBQUPQ3NL+GlKBMr8i9qhySQreElVUBPSllCA6IkHBZ8qbxjknea2bu1ReKVCWG4Sd8RHXcpUmk/TrmOx4t+fYvKY/nAylkCdl4Ijhw8jIpF/Mq6pAhX16exVFiCPnRclckd49uMn7+qkCJqxBhtnj0Vwb0tI1EpknDqMg/uPI0PHTeAVt3WkT52Kkbpf02dRezqIWH4prl5YK2Lt+3j7/TBEJbEQtvXCyL9/io1LdfRrEEL0RgGiB97y4K0Nfrlqwue2wogtfvkK7YDosOtircZin2oda568GXt32PJP9ooc8C8bCXhxMJyMVEj4z2S8Me0jzFq4Cus2b8Oua9pBpijnLQ9LOA3XLN9XeRrmfhaJDHRCwFuzEcov91SSjUJwP1OorxzA3JBpeO/j+Vi0dhvCNqeIl4e0yTq76uxgNjPS7kTXbJ8U6mt8XbqmHxF9RVO3vpS5MQhb9hHefucz7DirgsSZtZom8H0phpK14iRdXKpacdXJxNZTQSbixCJCSG0UIHXgX13i2KeDuFQbv3TFh+jyob58Cnv3Cn5YcBWFlzUnbj6sl6+jMZx8xsGj2mgrfoId+bovrKBG+umDQomzGT8hKpB3ovqlKReEeFUbDcUkR6Ugn1/XH6Y9gqtOaeFY9E08FAYOCP5wNkJcxXJPS/DbIyuKsrT6KmTP9Ud3rUtYMUjlV+CsfREyRDsIZb1CEdxLO0CSf89ke8G2b8iExrcSZKaQV99HZQp2H00TLj/JWKsKiERcGjte5l4YN8FFqFKFtbAmD4BTtWNMCNGNRmHVQVV8B31fkKPX0x1RofoT7WVPoEeADBmnVMhNLRdrQRilxac7ak1Y8BsMX3jfCtbdjHB0e5F+l7TEUUWK2/YIHuELGws7ePTph1Gvv4NhzkZQZ/2KNWsTwNs61x39ENzNBg4BnrCzcmD1BmDcP16D3d1iyGRGUKT9hP1nWMWiBFyS+mCQpxv8ng2CV9dOcHL3gs+gEQh5MwidhZFY2qOw1Jl/ILrIGUOecoNXgA86JP+GxDMm8BnhBTv7HhjgZA277h7wf+51vDtIhpulUsiQh7iI47iMEiSU2uPZfg5w8g2qqjt0HN551R6K7LswM0XVyKmryVDy0U893BE03A+uNjbo7sm2z28oXh4/DuM8FIg4ns0q9sfMdUvx3itse06x7blZdbyqRmFNwdpF4xDkbCO8pw8/Js+x4G1fiLiN3yG+CLh4qgSugb7o6TkYz/s5o4utC7xYvZffZuHWTQrFyc2YG3ZRGE1WOQpLdjUeP/3Ot6Ea4b3lVceZkBaERmE1E35Px/fzc4V7PCq/ULG91ADnj+oO2E5dDYU6wVMthdfw1zbue7DUyPh+FXZnyuA9bCiChwfCw0KF7FjWMphdNSoq+5swbD2Ziwq5CwKGs3rD3CE5uQ0fn6h9QSl123IsC49HdpkUbgP4OtnUzxGGeWmo6xZO5aFVWLk3C2qJA0bOWcxaIgew8j8HkKGQwK5voLAOP+t8RKz8GTnia+45shb/XHUAqQXsA4JYd1A31toIX4Nfan1WUCF65Tys3n8R+U/YwHuIuH0D3dH5Tiaij2gGGtdLZhoyrkvQ2VvznsHDWHiUsFbIqnlYVzkCTRmDZTPXYjfvI7H2YqHF368/nJ8oQMLPbLtXxtTqMCeEaKM70euBd5SbWD4pBAPvLOeXqSq/kZd/XYnvKFNhZBZvmZz4WaF197pedN1Z3coEzV6HyV5qxK2ehpWxYqG+2sDxIqQ50J3oDwG/74OHgvD17m9ZaH5UShyFxeedfaRC5zkfztvo8GgTvOBjL+W91EhvbHgwAcIQZRWUunrxCSHNhgKkAXiQ8N/9OLP/pjACi098npe1rK9tf7TcJrwMH3OWH5mnsU8s058X/J1YGJXk4DFtwBLSatElLD1VftNu9R+XajKt5ZLM+HnY7C9F9uWLyCjkgwlksPP0gocNO+ErL2LHoiXY3cChuRpjseBLB+QnFsLKqz88rIGMiPmYtV3XjZeEkLrQJaxHhAdHs4RHa3IlE/mQw7myM3s4O9mbq5F9MhKrZ+kbHpwSMOajtTQDCzL2rcciCg9CHjpqgRBCSBtFLRBCCCGPBAUIIYQQvVCAEEII0QsFCCGEEL1QgBBCCNELBQghhBC9UIAQQgjRCwUIIYQQvVCAEEII0QsFCCGEEL3QV5k0gKzHEBhau6K9Y1+0t+4ulJVfu4DyzJPCo+r8YaGMEEJagsZ+lQkFSD0YsrCwfGm+8Hg/FSxECn5aLDwSQsjjjr4Lq5nJh7wN20n/98Dw4HgdXteMvYa0UoNmYPOOLdg8s79YQEjbRS2Q++DhoW8YFEV9ieLYHeJSA/GT1D+8IBMX7ykrRvbpSKxfHXnvN9EFwu+HOIgLNZQkYvU7q3BUXLzHPhRfrQiEFbIQMXE+tur6AfC6tkOthlKRiwuxkfh6+3HU+iHAe9tTjLiV07DypKa4LrIx87BxtAskfFvGsW0RSvtjzoZJ8DYWFmrJ2Ps6Zm0TFx4m8Zjg5Hq8sfK4WEhIy0QtkGbCWxONaUmYB79Xr1bL/aivxCNq3wE2xSAhNRf5d0xh5z8WC5aOhZ1YpzrFWV63xhQdj0zx+eq8R3vBSlHMTv4O8P6rjViqm/Z2ZCGjQAVDC/a6kZOwcdM8jOslFWvWZAqP4UPF+bp4YeIgHh51KMtFXM19YtORM+LzhJBHhgKkDpZ/WSDO6Zax8Clhuh/eb9IYFfnxCNu8jU1hWLbwI0yZuARRV9SQOA/AWH+xUjU3snjdGlN4DLLF56sMxShPUygv/YgjWYBd35fhLT6ji/Z2zMes96dh/DsfYd2hXKhlLhj93lSMrNVMYcFTpoasR3+M0/HcPcOC4W3JWjQlarGgBnUBYmvuE5siEsXnCSGPDAWIDsJoq86u4pL+eAuEr6vpXERYEv/lPVNYNWbzhvWFk0yFC3Ex2HXyItTmrnimr/hcfSlzEf2fj/D574XsgLlj1EQv8Ykq2WlpUEpcEKTjOQ0pxg1yhUyZhgxFnW0QQshjigJEB4n1g8/OTgv/EKYHqc+6GkJmwE+07BP7dc1yw4kn7aIURB5hObD3HNLV9bnUpFvCN8eRyhoP8m794SGW3XMlCslF7DnPYASLRVr6hiLIVQJFUhQymuzXgXnfyRbsXD4Wsn4TsGLdJuzcwZa/W4cvpw+FnNXQKmfTxqUT4FerlWSKgLfm4atNmjpCvRWhCDYSnyaEUIDo0sGxoR/H69aU64IsENP9bNhZPw1xe8WyhpKNgjc/aV+IQQJfVu7F2UzNpabRQoUGUv6IC7xRZGkDH01JNYkIj82CWuaKgDG1+0mCh7uzE3ouYnc3w/Wo9u5Y8PcBQMphRO07jgylVOg/mvP3UCyYOhiyK8eFvpSj6SrInYdi+ocjqw0WkCJo5hJMH+YCs/KLOCr0uxxHnqw/Qie4w1CsRUhbRwGig6G1mzhXt/r0gXCN6Ug3tPJF6BsT2BSKOQs/xcYNofA24peO1iJKrFOd03NVn5YrpxUTxCdFdn/1ghOKkXq08qStwo7T7CQvcYCPjpN8fWQrVOJcbdnbYpCqlMBtwDhoHVX7sQjqIYXybAzCr4hluhh7YXqNfdq5YQYCxKfrZG0J5e73MWst7zNZj1lLIpGhlsBpSCDMzmzFrGVhQl/K6o/XI461kiSOfTBcfCkGTUJIX1OosyKxaMoSrBb6XdZj7pT3sTuT1RWrEdLWUYA0u3biY8NJ7H3Zp/ShbAqEt5sNJGmRmPXuR1h3QvcJW9coLO3RSu54uQ9rwRSl4WD1obW7TyOdnVzd/F/WObrrQeTS+51SD+CXpGJ2QvfF2GFiEeM9egCcJMVIjoyErhHE9+gahVXHyDItJWk4srfacboSgwzhsl8hTn0fU+09E3HqCqsnkcPeU1MSNNCVtUaKcWpnuPZwaVa2Izrl/ttLSBtCAaJDxTXt00ZjNGZdypPrMWbc6xgzZRUi0lSQuY3AzNfr6pDWPQpLa7RS32fgYQnknz+ouXx1TwTiLqgBmz4YaS8W1ZsNOhuzAClT4oZYUlPC7t/Zp38p3Aa9Il4m0owCQ+4JhD/gHhGdo7B0jiyroYi11MRZjVwoy/mjEsoaLZ6K2/xfKWS8g4Sxk7OWWFkOUnVt2x3xkRBCAaJLaeaDzmr11yTrKkrE1vnrcbQAsBoUgul6dqto+hzYOgZ8qH1JiE0hvXgrohN8RtcdUDrZP4Pu1vxekUs1TtjVXAlH9HkVJK59MZYFlN1bLMhkaqQe2/XgIHhU+M2S4iwhRDcKEB3U19LEucZrunUlYvXOeCjYSd7vrxO0+xPqZQT8XNkn66IU7ctB9ybe0XyfEVM6uSBkymDYQYXk/T/e94QbtS+FbbsN/EePwNi+/DJaInbtrrvv5FG6VcFaY8a2cNPVGmOtLepEJ0SDAkQH5flDqMhr/Imfr4Ovq8kcCcMvZ9knefvBCB1//7vHa5KN8YWbEZB/usbloHvTekSnsxO6zBF+1foq6mTeH6FL38dIBwkUJ3dg9RGxvC4nwxCdpoa878vwMQeyT+6qcRnt8bEvjQ8rY0H9WqD217jI3DF5mDt1ohMiogCpQ8F/F4lzutXnPpAHraPhVIjYclgzmig4FKNr3Ltg5sBHbNWcXkGQvQ3G+vOvCylEchQ/OeoWdYQFHqr3VWhojwZbjC/XrMPOryYh2FmC/Nht+GBl9U7puqiwg69fIoFEfRFHvq97O7RILOFfa5/Y9JzmUpvd+MXYvmMLNk5vui83VG6LRJyC5YUX/76wGZjM3+/vM/Dllx/CpzyXLm0RIqIAqQP/SvYbhzaKSw3Hv0yxWb7W/Uo4wo4UshOrC0a9N0LrRC/vxUds1Zyegb/PM/DgDZZrKYi435DZIweFG/8krr3xcrUVa48Gc0BnYzWyk2IQ9sk0TFl9oPaXKdZlv+bGQsXJX7C7vmdhIxv41donNgX2FCs0h+NYOXMtolLZcbb1QhB/v4GOwNlwrNxTINYhhNC38T6APt/I26hv4iWEkIeEvo23mSlYKyRn/d/q1SfC6/C6FB6EkLaAWiANwL8YkX+3Ff96ksq71fl9HnyoLh9t1aQd5oQQ0szoJ20JIYTohS5hEUIIeSQoQAghhOiFAoQQQoheKEAIIYTohQKEEEKIXihACCGE6IUChBBCiF4oQAghhOiFAoQQQoheKEAIIYTohQKEEEKIXihACCGE6IUChBBCiF4oQAghhOiFAqQ1ko3EJ99uwc6vpiJALALGYsWOLdg8s/G/He79jy+wc8cmrBjPfye3aYUsZ9u9YzFCxOXHkxR+byzGxu/4tm7Bxhm+TX9MdP4NCXm8UIA0kKG5GToN9ofViKeFic/zsseKuQyG4mxzkEkk4lzbJBv9PqYPd4Dsegqi9x1HalEzHJNm/hsS0hToB6UawCp4CCyG9IdBByOxpErhoeO49t8ocamx3BEyNxRBhifwxvxwsayxeAtkBKxOrscbK4+LZY8f3gIZ6ZCFiHHzsVUse9yELGXb6My2cSLbRqVYSEgLRD8o9ZCY+XkLLQ5d4cF1YsHiMmuyzufrek3dTGHXtRNk9BH0MeQOM2P2UKJAOoUHaeMoQOqBB4CxZw9k/PtbJE9fgIsr1kF5MVN8toqRrTWcpr6pFRh8nocPaS1MIWvo5wFCWim6hFUPvI+jouiGuFTF9rW/wOypPuJSlTulZSjLvibMy1wdheBRptUOHF0CZq7D9L5ScalKxt7XMWsbmzHvj9Bpr2CQM2uhiJfdlbmJ2LV+FSLSNMtAf8zZMAneRZEYM7vyEpj2JazRizdhnGsxome9j3VXxCqM5v0lSN05EXN3i4VM0Ox1mOyl0tQfshg7n7NEwteTseyI5nnN6woQMTEctyZPwChvG8j4xxN1MVL3rsen4Smo/oFd1mskJr8+DD62ppDwespCJB8IQ3afDxFcj0tYtV7PKAviET5tLSovJMoHTMDMsQPgbCHV1LmrhvJ6Fo5s+wJhJ1SaStyEyv2ZjRjX9/H6EAfI+bG9q0L2H7uwaPUBKNii7r+NSnMcHGsfE07//dT1NwTcRk7FpOe8YCdsIMOPb9R6zN2eolkmpAHoEtZDoCs8uJzv/osbf5wWl6rwVgcPDj7lbP+p3uHBZcYfRNS+eGSXsYWiFDZ/QJiOnNE8HzJrEoJdpbhxJkYoj04qhKGNF0JmNGy0zr6kLKjRCU5Dqp8Q3dG3K1+WwNl9hKZI4A5PG1Z+LQUR1cKmNhk85s3AK7YKxO1n230oBfnsE7vbi1Mxc5hYhXMdiwUfvgI/WwnyEsT9OF8Bp5Ez8Ew9BjHJhszAv+Zqvz7qUCJuSOSwEuu4sVD4eupQuBmrkR6rOYbRCQWAhQuCZyzHHK391rB8fgmm+wPJ0bz+cWSUSmHnPwEL3tJslNbfpiwXcfx99x1EbF1/3kbuZ02y0fOwYLwvOpelIVp47+NIVUjQ2cZUrEHIw0UB0kg8RHgL42bSedbyKBfK1EUKYZmX34hLEMrqK/vQjwjbHI8CNVsoyWLz24QpIlHzPPJTsHXhZLy3MkwoX7dsHnacZZXl7ggcItapB+XeNGSzRzvXZzQFnGcguluqkM/eXNK1Z1Ug2fdn5eyt048Lr6lbJ9jhABa99xnW8e3+z2eYJbQ8pHAbNFKsY4OQ0KFwkhQjYeP7Vfux8iNMWctDQKxWF9lIfPSWF+Rq9um92nEI+88qvDd5iebTvP1YhA5zgESRiHXvTsPctZpjyN/jjYWRyFCbwntMKLQvLLKwMM3EuvfmYzVf3+b1mPVZDAtAdoz6jIIHe9T626gLECvU+xHROkP1Pvu5kR0TPQZtvdzXhUV7Lg7OFY8v28a5097HB99U/ucg5OGiAKkDbz10nTgW3Rf8Ex6rF6Hn8o+EZV5eE29hXN60A+dmLxP6SFIXfSksN6TlUV9bV31W7VIVp0JEVi57lEJurympF2UMUtnLJPbuqDy12/m7wqosE1En2BPGtujrqSmXDXFgn+yLkfH7gy6TqJAcFY5UcYlT7k1BNjvhSozkrH3CyJ6Bt4ME6rQYrD5U7TISo4wNw6n7tnD4p/B+cJOokRqxHFu1jkMVu+B+7MTN6kSvR3TNju60cPxyhr2vuSueYa2N6rLjatRPO44LrNECI+m9lk29yQLhUdd+HlqP2Afspy75Sr4eS7iNcdccS4EKiiLt9RPysFCA6MA7vZ3efRMmnj3v3ePBL0vxZV5uO/4loeyRkNkgaPQkLFi6GF+u24Tt327CzuccxCcbIhf7zheyk6MjPAfxZRuMdO8E9aUziDiUxT55d0J3f811luGu7LEkE7EnhcX7KGCf0sXZewqh4pd85JaaT/w+luBH9MaV37X6RDRUUN8VZ+vg3Zk1hViY5cTWfdJ0NOWXp+quczSPp4IprJw1yxoqFFyqWT8FN3iRsZy1rBrIx0YIHX33U5eonQeRWiKB0/APsXnTF/jk7yPgbS4+ScgjQAFSA29hWP9lhDDKik+Vl6Wq4wFTV4jwkVjNxnUsVvz7U0we0x9OxuzTbV4Kjhw+jIhEFgR6yI5NY0EhhW0fd+ETs5O1GukpkcAVzSdvq26B7JNuIHpYs/e6fA5Hxdc1hQo175bWVwUqisTZx1zj9rOGtB8x951pWLYzHhkqKdyGjMWctWswU0d/DiEPAwVIDR1su+DColXIWPutMPH5shzNiKrqKlsplZe0hNbJ1DeF/o/mEvDiYDgZqZDwn8l4Y9pHmLVwlXAtfNe1CrFGAyXFaILCuT/cRrvDSZ2FU8LIqxQcTGOhZOOK4Z7usDVWI/UUC5amoFAJn8g72w3WLGuxgay9OFsHRTlvEliyT+GaZV0yi3kdU9j66z6xBgitmELkNOegP7UavKtE3/2sWzESdq/FrGmT8fba48i/Ywq/8ZPo607II0EBUgPv9ObDcCvxeR4kukKEhwcPEd5HwvtHFH+c1npto5lawk+c5ZzN+AlRgbzqQ1DhghAvPYb0CFJw8jJbl7UDJrjaQJ15DvvEZ5JP50ApsYHni66wYsGStFd8orGSEpFTAki6ByLUVSwTyUdOgN8DGnDJUXxklwRuw2YgqKojQEt21Glk8zpBk2rXYa24Ub3ZcSxIQ0xzBkjsOWSzpNR3P3WRm2uPtlL8vhWn+H9LI1nD+2gIaQIUIDXoCgBexm8eLDwcK5Zo45e58iN/a/CIq7olIptfopF7YeyMCQj9+zzMHA9EX+Kd5TZ4ZsU8TH+Dlb8xCSs2zIOHQbHwKn0cjUtjLQIHuLlKkJ22t+p6/ZFzyCiTwq07O2nlpt0LlsY7jq2HsqBm4RQ8bw0+mcr3YwKmL1yDr0fLkF8jp+3GL8Z2/oWF08UvgUwLw5q97PXs2Ez+d9XrQ6d+iC/XzdN8CeOVbVivo87kmZ9i88IRcEIWItauR1P9tXQ7gLDoRuynDqNmrcHmNZV/e7Y/c5bgGXtAeSG+Cf8+hNQfBUgDXNsdiQuL/iV85xUPDD7x+zz4Za78qFq9x42gwtawCGGMv12/oQgOtIGMndmzvwnD1pO5qJC7IGA4Kx/mDsnJbfj4RCMumwlBwWeykLy7essmEklX1JBIJMg4+4uOjmD9ZW+fj0Xb49kndBZQA9h+sH3xNi/Awa+XI7l2l1MtqduWY1k4vx+j6vXB/RxhmJeGykZF6jb2Ht/EaEJQrBPkLYcyLQZhS+bXOYKrKTV2P2tKv5ALtbH4t+f7w0P/0DZ8+klkk/59CKkvuhOdkIdOilDWog22b/id6IQ0JboTnZCWRvYcnHgfSEEuTmlKdHCA3BhQV1Dbgjy+KEAIeaikCJocCDcJkJ92HMliaU2yMa7CvSfZaQc1BYQ8hugSFiHNJGD6F3i9qxLZmWnILmEF7S3h1tsdTuYSqAuO4+tp67XurQmY/ilG3U1BKlwxyN8BspvxWD15bZPef0NIdXQJi5DHVOaVTNyS2sDNX+zoH+IFO0kxUg9tw7KPtMODU5QBTryzfYADcC0RW1dReJDHG7VACCGkjaIWCCGEkEeCAoQQQoheKEAIIYTo5bEJEOr/IISQloVaIIQQQvQA/D+oRAKQUdRdqgAAAABJRU5ErkJggg==;" vertex="1" parent="1">
                    <mxGeometry x="330" y="215" width="260" height="195" as="geometry"/>
                </mxCell>
                <mxCell id="3" value="" style="shape=image;verticalLabelPosition=bottom;labelBackgroundColor=default;verticalAlign=top;aspect=fixed;imageAspect=0;image=data:image/png,iVBORw0KGgoAAAANSUhEUgAAAY0AAAGLCAYAAAA7/s7MAAAAAXNSR0IArs4c6QAAAARnQU1BAACxjwv8YQUAAAAJcEhZcwAAFiUAABYlAUlSJPAAAGd7SURBVHhe7d0LWBTl/gfwb9l62eWyCIvKRZBAFDFAMVARlTRvxzxdj1qShhrmUf55ywzvZWVeUo9JKYl6Csv0dPIoWIqKFyBRIBVFUEEBBRSXcFdk1f7v7L7oLoIOuCgLv8/zjPvOu+/OzC4+85133pndpzx9evwFQgghpJL2Iw/h9DfefE7naf5ICCGEPBSFBiGEENEoNAghhIhGoUEIIUQ0Cg1CCCGiUWgQQggRjUKDEEKIaA3qPo02jo7oP+zvaNqsGa8xlHniBPbviuVzxHSNx+If+qDV0e/w9uIdvK4eCPwIGyZ2AurbdhFSS1Xdp9GgQuPtf06CpJrAqFCnwcF3GlJWPLM1DB/9WKSrr07XGVg7wxtyqJGyeiwWxfN6Tmo3BCPGvAj/9grIm/PKOxooc8/gwM/fYeOhbF2d3nof5PyOkfil9TqEdX1Yyzxs/8d0bORz1RuCWevehI85n61Qpsb5+B+xKPJXKHmVcVFoEPI4VBUaTWzbOM7jZZPXrVcgL1XP2tYWXXr0qHZq36kTSv8sRUlxMX9FDTgF4uXnbSFhRWu5BRJ2HcGfumeqoMCrE9+Cr3UTVtbg8pFfcCBH94yg/RuL8HlYIDq2luHOtTzknj2HpKxSNJHI0MbBHu5+gehjp8G+pExo/rJA8zuluJB1EVnCVNQEbR0tUHriEPYd43VsOpV2BKevtgSuXr5bd7VpGzhYluJ47FGk8LqsrEykpZ7EZb4t1WuPXi89hzZ/5SFp93GcyCpA6W32n8rcGg4dvRHoXIbthzN5W2Pqiv6vO8Ps0nH8fKgull9L/O+P+rZdhNSSdecQXDkawed0aEyjEjNLS3Tp3p3P1U55mQaw64ThXXlFVdq+gQA3CdSlal5xj7TPR5j+qjOkt4sQt3IW60FNx4xPFiNy5VzMeH8sXn/vRySxToxtzzcwL5gdBVzYgc3rVyOyYjqmxC22nGs5enVs2p4K5O6LMqhLLGLbChWy9eoi1/+IFO2WiKRRIlH7uuVYNGc6Jk76DimlgNy7J17lTQghDcPjCQ23PvCx5mWx3F5kO1VerqF1S5c80vSfTQ8/MfMgt7KykQs5fF4eXe0pI59XOsEBRTir17vQ6YP33uikO2W17mOsqTgFpe/qz1jywa84o5Gg3YtvYLiM19cXqh3IvcoeJRLUt00jhDyaxxAaQzDrg/GYtegjDBQbHG6j8cmHoxEW9j78eJVJufk7kjKBpm4+GNGW1+mTjcZrvnKUZ6bg4E1eV+HFvujMPqfyzIP4ct8DxkRU3+GnZCXbMTujy6sKXllf9IGtMM5RVGTYY7F+ESELvsKGf3+PLT/opg3LP8LQKg4O5D0n4pN/rcN30bxt9Aas/Xg8OvPn7+eN4M83sLYbsHrykHthLePrvLucdVi9YCL8DNJMGCNh2zJjiHa9i78WllOxfTOq+H/rjICQRVj9LV8mm9Z+8T4GVow7EdKAPYbQ2IEvvzyE87JOCBETHNrAeBHtkY2tK5YjiVfXxtip0x55qu5KrIfZ/OtJ1ldQwP+VPrzmHofhPmgv0SAjPgrlvK5C5w4K7Q4v71QUe/2DpaTmadvYO/XVVdQDwuB98IK34GfNeko/rcdxXi8InjEaA92aoviPI4iNPYS4P5R4xq4Tgqd9hADeRtA++Au24++J9ublyE44pG0bm5CHcpkclryNIW8Mnf1PDHWWQHnkR0xfuUP32cnYAcsytk53ts4Uvs4TKsjde2La5zPgo32tHkUffPFPVnvyd23bg+fU7P14IyR8IusVVlAgaEY4wl50hrwsGweFbYtNRaGMtQtuj2d4K0Iaqsdyekp9YjXmfSYiOPQD49NZ2PwIY4nC5beP6io7Ui6/WbkrIFL8z4jPZ0fMz/XFUIOjWrZT7c56BpdTWbDwKj2WzZuyf9VQXtTNPxDbqV1nD03N5Lr5J8W8E8LuHpm/iaFO5Uj68V/395SKMrFxzli8v3i5duxkzSdzsfmEhn1I7RBYka1dZyBsiD2aKk9izXvv4aOVfJxl5SxMfH8xDvJm9wg78X8i2FMK5dHvELaEBwYTMPFl+MhZeK35UG+dYZgfy/6uCm+8VmnARdrWCue//hAz+DpXfPgvxAlXA7Bge/U5XRsEjsfbXaUoz96H+e/NwgrtWM5ifPTeXGzNZn8L3oyQhuqxDYQLwTFj/r7qg8PtTcyZZpzAEDi5uvJS7V26eIGXauMkohOy2dGxG4KGd+J1bMf0Rk90MgfOHPo3zvA6k1eWhyTtETc7kj+ajdxSGfzemIG1X0w0OJrfuGQuthv8XYuwPaeQPUoh56fxAl5oD1sokfTNJ4hT6eoexG98OELYTlyZynoYi+8FBvAGgjqxPtvlk9hYKbzO/HgGwlodnh2iq6hwIaVS0KXi4FnhouGmkLXU1QT1bMe2VomUH7+p9PfLxubdZ/TWT0jD9NhCQyvzm6qDQxsYQ9BZYpzAELRxrGowoWZysrJ4qXbUPx7CyVK2c+o6hO88O2FEd2c0VWXiQDX3cGjuCP+ynaiYjpKLFGbsQX01Tzf/pNy9eoodyS+ehff/+TY+YkfzaNsTYyf25I0Y9ncPenUG5nz6BZZ/vQHfbdiALaxXoc/Fmu3oy4qQcZRXPMAzz76MyS8ocCvzV3zx6c+V7gmRw0wYY2jdDct5L+ju9G1P7ekmqbXhutVF2fft9I8rheS6F2oO8gdsn/ZvR0jD9nhDQ1ARHM15cLj8HbOEwEAmNhopMIRxCGvFow8OX7oo5hzRg+zAxgS287TuhKEvstkX30CgHVCYuhfV3V6YdL5QO85h7/KGruIBfLztteMfuWfr341kZ9afhBBltm15L8ttPBZ/9REmvOGNZ1lPS1NwBgf3/Y7tqVXc/qcph4hOBm79WQilhu3S7dqjSzVX2pVfOKkbE6lqiq9lX0/k9hHSED3+0BAIwfExD45P32BH4Sww7jt1UXvG6GU8emDo5G5O0V4a6x44GsMD3SDVZONA5D7+bBW2/o4Mtkdq6tkHYQ+6z0P2pvYKLLBeS6IJfDNKwMvPo11zYXwhTHffyZxPsIb1TH66LNwnco9KmDW3R+eKMYQHKTqE6etOQilzxqvTKp/yVEHDltW0qRq7eC/ovmnHA/4O1dBtny3cq/ovZt6UBsJJg/dkQkOgDY4fsT12HyKNGBgCY4xnPOqpqbtUUdpLY5u69cVQZ0B96ndsfuBh6s9YsiOb9TbkCJj8BUI8q+gxWbPe2RdDtFdgnd/3H2yvd4e9CnSe0AntWKmQHekLXKyEPpEKBUf0T8t5421vw/cXk5AJNXvvz785Hu153YOo932CL3bkoVyu67kG3b3o4FccF25xad0JwX2Md0lyzBmh/6SA/5t6l/UKZD0x4UU3GggnDd6TCw1B5s/YuP4bxBoxMATGuHLqUq5xehqClG0nkQsJmkqUOBb7M6+tnnrrcnwWy3aEze0xcPYKbPjXF5gzeSJCJs/H4uXrsOUr1juz1iB3z3eYtzGVv+oJksjhP4ZtH5smzFiE5V8twRxhR331JLZGHdI2icsSwkKBoC8WIUzbdgYWr5sBzyaGp6fUO/6FDUfVaOrcB5+s+wKzJlQs9wusXj7D4NLcCmc2Tsd8HhwTllUERxE2b2C9WY0UPhOWYO2CGdrlCFPYR2xZ336BYO2ra0a9cR+S2CZLvd/Emi8+wgRhmRM+wvIVE9GlrIgGwkmD92RDw8g0/PJYcwsL7WNtlf75J64WCtfXGMmFH7U3+5Vn/o61IgZ4hR3e8fXTMW7hz4jLYHsouT069+yJgT3d0I7ti9VlQhsJbN06oXN9uOWahZvfQLZ9bArq6gwHCxZoCTuwYPq9K6ByI9dj49Ei3LJyRoDQ9sX2kBz9ER/9XrmbVIS4xR9jxa/ZKIQtfPrw5XayQvn5bFRxf7zWmY2LEXlE+KxYcLCduTY4WG923mc7kHRBA6mbt3Y5wvR8OxmURw4hUffSGtqBJVOiECv8XRw6IUhYZk/Wpzqxg/V4jPh/hpB6qsF9NXrgwEGPFBpC8Bzet1f7bbj1lnB6aqHQ22BlVTa2LluOzSeqvhqLEEJqq8F/NXqjInsRE+a9iaC2EuCOEsejv8GCX4x3qkru0hOOwvW81bmeh+PnqjvuJ4Q0BBQaRLTgz7/XDtxXK3sfXv/gGz5DCGmIKDQIIYSIVlVoNKiBcEIIIXWLQoMQQohoFBqEEEJEo9AghBAi2lOvfPEXDYQTQgip0n1XT7Vz6/RYQ8Ova2ckHdX/PTdCCCH1VYtKX8NJp6cIIYSIRqFBCCFENAoNQggholFoEEIIEY1CgxBCiGgUGoQQQkSj0CCEECIahQYhhBDRTOTmvhbw9e+A9MQUo/4Gs7m1DZ71eR5NJBJeY+hK3gXk/JHC5+obKV6ZtxIj3NRIipiMJQd4dXVGLcCWwQqkfDUBix7WtibqarmEkHrBJG/uUwwJw/jQsfg4tCfbVRrPs138qg0MgY19Wzg958Pn6hs5zKrfdEIIqRMm09PoHTobo/0tcS3xe4RHHDJKj6ProGG89Ghu3lAj99QJKAsu8ZonqH8olr/ihrzvpxr2PqinQQipBRP9GpEb2B+xEFGJJbDyH2n0HkdNWcsteUmnWQsp2ri687knrLUdHORSNOWzhBBiTCY0EP5kg6O9syOmjBmJiPkf4JP3Q7WP4RPG4PWBL2ifl1oYBgkhhDREJvgtty3gO2YmJva2QeH+dZi/vvaD42JOT0mbN8OQPgF4obsvr7lf7uVCRP1nB/67fi2veRSWCHhnMkb0cIWtTFejvBiPrb9ZYvg7XsDRCIxekqCtD5i2BmFdi7B9xBxsxHAsjh6Edtpn9JSmYcX4ZTh49zTSTMS7TcXbfZwgF8ZE7qiRm/ILIpbEIEP3ikrL1dcds74JhU9xDF6fuVlXdXe5U7Hn2akIDuDbfUcDZV4aflm7CtszdU0JIaanAXzL7Q0kr/8Mq/dfgW3vsZg7xqdOexx/66sLjMzsC7hRdpPX3nORBYZwukrohZibm/Ha2pIiaNpChPV3hdXNLBzctRuxuxJQIOuOkFEeDznldAoHhPYnS1hZg9xE4bVsiktGtq6BlmIIW74/cCJOt+zzN6Rw6Dock8e58ha1I/GbibDeClxL0633YKYaMkdfBE+ZgiAefoQQ02ei92kYBsesf7Th9cYlnJIK8tf1MJauj8ZHy9dg2frv2WOE9vHjNevxCZv2JCZreyRz5nykbVtrvUIR3NUSmpwYzJ+4ECuiNiEyKgLhEz/D9ny2Y+bNqpaG7UL7HCUra1B0THgtmzbHI1fXgGEBYZmNNe/PubvsGZ/Ho5A9Y9u5Hzx1jWpBCs/2Sqz752SEr9Ktd8W8yZgfdwWQe+HVtz14O0KIqTPR0NBRazTsXwmkZnUznjCU9TIEFT0MNXs8k30RV5Ul2kfhtJRACAxBn969H6m3EeDnBhlKcGzL5runinSysDE2HSo+9yhykyIQp7+gzBicuMwem0sh19XUSuGRzYbLZTLW7kMG+xPZOndl74sQ0hCYaGi0gMdbUzG9X1uojm5AeORpXm9cLeW63ajQk3iQPQn3nm/f3o2Xas7FRgqU5SHjKK/Qd5s/PhI1irIrjwDlQyVkorkcLrqKWlAjL5N1he5zhQUte5ArUF/vdiGE1IwJhoZeYKRuwIxVxrlnoyrWcgteejCh51GhS5cuvFRLrPdkjB5FtYwSPlV40HLL1BBOmhFCTJ+JhUalwPiy7gJDX8Xpp+o4tLblJeDyJeFcTy0JO15ze7g76mYNmEse870Xctj682IFmRPk5rxsQAq5cxWXIzh6wJ611yjzcIJXEUJMmwmFxuMPjKvKP7WP/t6d77uhT1/F2Icg/1JVp2nEiTsrvNYGfm8GGo4ByDwwob/HQwbC9bGdeFXBI1J2ifDJWqJdZ8MrqtxHdrv/kl6uXZcR8DTYaCmGvu0LW2hwLnUPryOEmDoTCY0n08NISD2uHfxOZI8VN/Lp9yqEy3GFG/28OujGMS6xXsbRo2K/4NAOwZ+sw5bvVmJaL11N7re/IEnJMsIrBKsXT8GE0aMQ8u4ULF/+AbrczBd32ipbqW3Xrtds7eunzQrFvUgTJzf2CM4LA9hBM7F6VghC2HLC5q3EXD+gsJQ3MqCBsnl3zF2+AGHCNo8OYeWVCO4khSZnNzZtexx/LULI42ASoaEYFqYLjOPRCDdiYNy+dYuXqhaXcARPsccWzZthw392wsbKEsV64xeOLED0eyBr10byUm0lYMm0VYjNuALYeyFoQD8M7OkMnNyMJTuKeJuHOBCBjYdZwFi4al/vZ8126Pwp0S5uxvxVu3GevdC2cyAGsuX4mGcj+vOfkMebGNLg/A/LsC1bBp/+bJsHBMLTWo3cRLacmZWvBCOEmDLT+cLCfv5I273XqAOqwlejO3f2QdMW1d8eKPQspo4ZicMpx3Em+wLSTt+7vVnoafytT09tefGyFdiy+QdtuU70mYKod72gObIK45Y9+GouQggxlsp3hJvg14g8fnZt2mDc+BDtfRh9g/rzWmDcuBD4du2Cb9auq8FpqdrxCVuJWf5SZGwZi/BtvJIQQuoYhYYpchuOxbOF75XKQvSEhdhWp9fkEkLIPRQa9dpwfLyuG2S5eTiTXYRyVmNm5wGfTnaQPa1mvYyFrJdR+6uzCCGkpig06rXuCPnkNfSys4GsOa/SfltsOg78HImNh+8NwhNCyONw+/oNXtKh0CCEEFKtBvDV6IQQQp4UCg1CCCGiUWgQQggRjcY0CCGkgVO0cuClmrteYPglrNTTIIQQIhqFBiGEENEoNAghhIhGoUEIIUQ0Cg1CCCGiUWgQQggRjUKDEEKIaBQahBBCRDORm/tawNe/A9ITU4z62+BlLm4oeCsUd1q04DWGzI4mQPHTJj7XQLkNwqzQl+BjJ/x6YQ62jz2C9v96De7qZKyYuAoHda0IISas0d3cpxgShvGhY/FxaE9U/8OsNVcwakK1gSG43rU7il4bxecaIi+ETRrOAgM4f3g34o7n43pLGZryZwkhpDKT6Wn0Dp2N0f6WuJb4PcIjDhmlx3H+06946dE8c+0qrP+3FdL0VF5jIvwnYW2YLyRHIzB6SQKvJIQ0NI3wa0RuYH/EQkQllsDKf6TRexyP6paVNa71G8znTIidHDL2UFhAgUEIEceEBsLrd3CUt6l9kj8xMgkkvEgIIWKY4LfctoDvmJmY2NsGhfvXYf762g+O1+b0lL9tSwx0aMXngHnHTvES0O7D93ipJiwR8M5kjPB3gq0534VrSpARG4Hw79N18zIPvDJ2FAZ520Fe8TOwZSXITY1BxIoYZPAq4ediZ30TCp/iGIzepELYO4P5ADdbpDIL2/+1FNEnhU9rOBZHD0I77TN6cmLw+sycu8t4feZm/oSAb2cPV9gK3RNGeTEeW3+zxPB3vAA6xUVIvdXIv+X2BpLXf4bV+6/AtvdYzB3j81h7HM2bGH5k8qaPcqzuiuDPliKsvyusNDk4uGs3Ytl08JwGMoWlroksENMWf8BCxQ6SojTEadskIEMthYP/cMz9bDjcdS3vaeaBudOGwf5qsnZ5ccevsA11xSvvT8JAbYNTOCAs56TuN8eVJ3XrjY2/F4CGpAiatlC3nTez+HYmoEDWHSGjPGjgnJBGpImVte08Xn4sHOxaIe9SIZ+rrVvIT01CnlUX9O0dAO9mKYg7eZ0/J56y3xBeql7zJk0w7Tk3uFrI4Gwu0/Y09HlbW8JM8gxea2cPeRs7XDws/iJVn0kfYWxncyiPRmJi+CYcSP0DKWxK2vcrdiXlatsEhM3Eq8+yXtHORZi4dAeStW2SEbdzN6626wW/ju6wf5oFQ7qGtXZEr6G+aGMtg/LXz/D+6j3a5SUfOIjyjkHwsldA9tcviDtVgDPCcpy64w03OS4lz8fijWw+s+DeMm5kYcvuE9ptQK9JmDvMCU+xnsj8KV9hx91tSEcLvwB0lDeB5lIyfj6s22ZCSP0iM7PgpZorVxnuW02wp3GPWiPsKCWQmvGj8jognIoSgkMIDCEgKhOeE4JEeHTtPwAtn3XlzzxMdwzqbAMUJ+OrJfFQ8VpDg/BCJ9aPKk5D9KYsXldBjbg1h3GevX9375d4HVeajliD9mpsT8+HhrWVWdS8Xxbg5wYZSnBsy2a9U2GCLGyMTa9m2wkhDZGJhkYLeLw1FdP7tYXq6AaER57m9cbXQW7GSzrKcg1icwsQlXkBiYXFvPaeji+/xksP4wS5OdgRehZSeM39LCFr/oA2qhwoS9ljSwX8dDU6xfmI48W7ilQoZw9WNl66+RpwsWFBU5aHjKO8Qt9t/kgIaRRMMDT0AiN1A2asMs49G9URwuHyjZt8DiwwLmvDIrtUpQ2P09q9tk7Wb7twaMlnfE6c8lsmcpzOenXUoyCEmFhoVAqML+s2MASX1WUou3XvcPq00vD83uUbZbwEnP0tlpfEYEf+GkBm5wFPXnO/EqjY4iVtXOHDawzIeG+lKBtJvKpOCG/f3B7ujrpZA+YSGggnpBExodB4/IEhaC1tDnmze1dIVT5d1bpFxTWwwLP9BqCpmeHz1duDpDPsHSh8ETyqunGQGCRlsjYtvTDivjZSBE3ogXbQ4FzqHl5XN+LO5rN/beD3ZqD2ZsC7ZB6Y0N+D7vUgpBExkdB4MoEhCO3QzuCy2oEOrbUD30J4/N3Jjj2yQ33O9cWB6Bb6Tz73MGpsXx6NFKUE7QbPRtTiKZgwehRCRodg1idLsTysu7ZV7Iqq2oTi49UrMaGrJZRHN+LTbXX7aeR++wuSlCwjvEKwumIb3p2C5cs/QJeb+XTaipBGxCRCQzEsTBcYx6MRbsTAeLrs3qml6lQe7BYCRLiiariLY5VXU536z0+8JIIqHos+ikBsxhXWZfFC0IB+GDggEJ4ty5GdmXOvzbRV2HacHe3fbdMdLk8XIeW/q/B/1V55ZUwJWMK2Qbud9nwbejoDJzdjyY4i3oYQ0hiYzhcW9vNH2u69YAe8RiN8NXrRa2/jlpXhvRf6hEtp/8/zWWSXqlF2+859QSFcTXXmchE6mjXHxf17cSTiX/yZRqLPFES96wXNkVUYtyyZVxJC6hNj3hFugl8j8mR5vfU2vEeN5nPA1uAR932ojYlP2ErM8pciY8tYhG/jlYSQeqWRf43Ik6VRG54MasyBAbfhGNGV9bw0OTi2i9cRQho06mkQEYbj43XdIMvNw5nsIu1NgmZ2HvDpZAfZ02rWy1jIehnCFVaEkPqIehrkMcvB+QLAyqliIL4fAjopoMlLw/ZVMykwCGlEqKdBCCENHPU0CCGEPBEUGoQQQkSj0CCEECIahQYhhBDRKDQIIYSIRqFBCCFENAoNQggholFoEEIIEY1CgxBCiGgUGoQQQkSj0CCEECIahQYhhBDRTCQ0WsDX3wdSPmcs/u43kLryPM6ty6pyWjymgLcktTMci6M3IGqa7vfOtUYtwJboNZjVi88TQkyKSYSGYkgYxoeOxcehPY0aHF//8zIspLf53P1e61lKwUEIIXpMIjSKdqzAd4klsPIfadTgMG9RfWBUEIKjql6I/hT/eTZe9DH8RT+T0D8Uy9csxTQ66ieEiGQip6duYH/EQkTVQXAYg4P1LUx+qZjPmZDWdnCQS9GUzxJCyMOY0EB4/Q4OD8ebvEQIIQ2XCf5yXwv4jpmJib1tULh/HeavT4GaP1NTwqmlGmv9KuD8Hp9hEl/gBcBlrCsv1YQlAt6ZjBH+TrA1l+iqNCXIiI1A+PfpunmZB14ZOwqDvO0gb66rQlkJclNjELEiBhm8CuiOWd+Ewqc4BqM3qRD2zmD42OmiVaPMwvZ/LUX0SeHTEgaoB6Gd9hk9pWlYMX4ZDgqD1YMVSPk6EgX9gzHQxfLec0K7lt0RMvk19HKxgaxik0uv4NzhaHwalYx7J+p067E9GoHRSxJ0VRXL/moCFh3QVWm5DcK0cYPQxd4SEuFQhn0GuUcrvb8HbZfMFyHTRxhsk6ooGZsnr0KsbpaQRutRfrnvwmm+H+JMqKdR4QaS13+G1fuvwLb3WMwdY/yrqh7oGRkvcM1a80JtuCL4s6UI6+8KK00ODu7ajVg2HTyngUzBdogCWSCmLf6AhYodJEVpiNO2SUCGWgoH/+GY+9lwuOta3tPMA3OnDYP91WTt8uKOXwHkrnjl/UkYqG1wCgeE5ZwsYWUNchN1642NS0a29nkd+1dC4HkhGuNGvI3XKwLDjQXB0lAMdLeE5lyC7nX70lAAG7gPmIQvpwWi0if0cMIyZw+HH/soz/FtOXhRont/C4bet7z7t8sLYZ+y9+YmReER3evjjuZDY62ALX8NIaR2Wlq1NJiaWFnbzuPPPRYOdq2Qd6mQz9XWLeSnJiHPqgv69g6Ad7MUxJ28zp8TL0zMOMQzZkCXLWyn+zxg4QW0YT0NfYoBQNOWbP8fDgdHO/wWl8qfeDifSR9hbGdzKI9GYmL4JhxI/QMpbEra9yt2JeVq2wSEzcSrzwLndy7CxKU7kKxtk4y4nbtxtV0v+HV0h/3TbCeZrmGtHdFrqC/aWMug/PUzvL96j3Z5yQcOorxjELzsFZD99QviThXgjLAcp+54w605zv6yCCt/YfMncvCnsFKvvqxegab5sXh/ya8oFeq07BA8IwR+NtfZ0f5UzIhK0C4/5WgCdm0/gRbdesCroxvaZMfg8CWhvSf6v+YG2aVk/HxY9350y5bh8pEdOHBBqODLNC9A7MJpWBrDP4O4vbjqFgQ/D3vYnPkVScJ/meq2y/8NjA2yw+0/NmLisu2693x4D7bvO4acGzdRxpsR0ljJzCx4qebKVYb7VhPsadyj1gg7SgmkZvyovC44TdQFhxAYQkBUJjwnnLJij68O6w6PDo78iYfpjkGdbYDiZHy1JF7vlI6+QXihE+tHFachelPlU2lqxK05jPPs/bt7v8TruNJ0xBq0V2N7OjvyZm1lFuL7ZQXndhpul+Mg+DlJoMmMx4p9lU8KZmHjjnTW3hLuvX15nQgVyzwTj8hMXqfF3l9iJlueDey9eRV333blKSH8t5Y5+WIgy++7ikug5EVCiHGYaGi0gMdbUzG9X1uojm5AeORpXl8HrHrwAnezAMj+CkifAlzexivvGTPq3hjHgzlBbg5oLmUhhdfczxKy5g9oo8qBUjjcbqmAn65Gpzgfcbx4V5EK5ezByoaFnyhqFGVXCgZntj3s4drFw1WH3IF8CB0CuXUNxnb4MiWdhmNL9AbD6V0v7XO2rfRuDqxquy5uxfbDV6CReyFk9QasXTwFwX3san6ajBDyUCYYGnqBkboBM1YdYruROnRqKttPneUzTPZqFhZbgT/TdOVrh/gTwNb/JmD6R1F8TpzyW1X3MeqFh9/GYjTKDD6uUsW0KzmHt+Lu2y7WK1k1FeOmRiL2eD5g74Wh736KtZ9UMd5DCHkkJhYalQLjyzoODIEqC9DfseuFhJbwPLf158O8JAY78tcAMjsPePKa+5VAVcaOwtu4wofXGJDx3kpRNpJ4VZ3KZtvDHqwce1R9FN/LTjvwXHj5D928GEq1dpmyW1cQGbWpyil6HwsCEVT58Yhc9CHGjf9ce5WYxGUQQkbVpwuzCTF9JhQaTyAwBDJXoJneNThWPXmBE57nXhnWHRYWLfjcw+xB0hn2DhS+CB5V3emcGCRlsjYtvTDivjZSBE3ogXbQ4FzqHl5XG1LIxQ7DXIzBMbb/lrgFIqxP5Z2xK4KHeLAwuYIzhw0v0Xug4wk4X8yW2T4QIW68rqZklpDrp5gqHdsOCuMh7Cm5s66OEGIUJnL1VN0Ehqirp7pu0Q12VzDvqHuUtATsRwDWfXXzjDAIrrCxFHkFlQZnjpbCLdAXHTv3xhA/F7Sxd4WXdzcMev0tvNK5VHsFVdaxqtr0wKvjQjDwWSmUR6MQHpnFlibgV0/dyMKW3Se0NXc5dcffu7UG9K9ksvTBEFZn26ozbBRO6DO4B54+kIwL913hVKEUKeebo1uAJzo+PwAvdmY9C+eO6OLXD8HvvoFutndwfueX+Di24nMVc/VUAdLULujzvBs8ew9AD5fWcGjviS7C5/D3NxD8ugeu7fwd2qbVbZf/RKyaPwJBLnb8tT0wYrAvbJtdQdLa75BsgjfrE2JMje7qKcWwMF1gHI9GuBF7GKU3mvDSA1Qe7Bbuy3CeCLgvqPJqqvWbanDUr4rHoo8iEJtxBWjthaAB/TBwQCA8W5YjO5OfxxfaTFuFbcK5+rttusPl6SKk/HcV/q/aK69EOBCBjYfzobJw1S7Xz1rz8KuNMjdjxsJNiDunhsytO9sWtj19vGBVloW4bz/DjPuu8no41b5lmL5qNzKusoOKroG6ZfbvDs9WwPkDCQ+4UIDLzsT5qxK08ql4LQuMUtbbWDYbawyuyCKEPCoTuSO8BXr380fa7r1GvYRS+Gr0L94pgL31LV5TBaGX4f2d9s5j7diG4kX+BHezANcvJaBMFoDtu/7Aws9+4E8QQkj98Ch3hF8vuMxLOib4NSJPVth7f2PTUD4HBL74EXLzWU+BEELqKWOGhonep/HklJbe4CUdCgxCSGNCPQ1CCGngqKdBCCHkiaDQIIQQIhqFBiGEENEoNAghhIhGoUEIIUQ0Cg1CCCGiUWgQQggRjUKDEEKIaBQahBBCRKPQIIQQIhqFBiGEENEoNAghhIhGoUEIIUQ0Cg1CCCGimUhotICvvw+kfM5YfM1aYH+nZ3HsObcqp3mOrXjLRqDXFERFb0DUtO68ogZGLcCW6DWY1YvPE0IaLJMIDcWQMIwPHYuPQ3saNTiWOdnBvEn1H8FLVhaNKzgIIeQhTCI0inaswHeJJbDyH2nU4DB7QGBUEIKjql6I/vS/js7oa2HGX0EIIQ2XiZyeuoH9EQsRVQfBYQx2EgnGt2rJ5wghpOEykdAQPNngaNKqDZ5p61zt1MndHQ4KBW9NCCENkwn+RngL+I6ZiYm9bVC4fx3mr0+Bmj9TU8KpJTGaPucD6d9e5nMPFjhpMnKLivjcQwgDyIMVSPlqKY77heBVHzvIhBhXZmHbv5Yi+qQdhk7Tq1flI+W/kVi0PUv78rtadkfI5NfQy8UGMomuSlN6BecOR+PTqGSodFWcJQLemYwRPVxhK9PVKC/GY+tvlhj+jhdwNAKjlyTonhC4DcK0cYPQxd4SEmEbNCXIPRqDiBUxyNC10HsfE7DogK5K1m0UPhzVAy7WUt3r7qhR+PtWTFyxW9eAEPLYGPM3wptYWdvO4+XHwsGuFfIuFfK52riF/NQk5Fl1Qd/eAehmdQmHUy9Dw5+tiXdbWfPSg0nad8QzTu343IP9lpwsPjS8+uINNxlu23ZDF6siJB1Ow/kbFnBwcoCnjyMs3Afg1Q5q/L4vGem5ZbBo5wJX706wy/4VSZf4MtyGY/HHI9CttQTqrN+x72gGsnJLIbNzgYuHH/q0K0bc4Rz++UgRNG0R/hlgh6bXs5AQfwzpZwsgcfZD/24KPNWkCW5fSsbPh3O1rbXLnv0yPM1uIuv3g0hOP4fLzzjDs7MPenndRuzeM7rl8vdx+cgOHLjA5ruG4supveF0Jx8J+9m2n81FaXMFXFtcxZa4E8IrCCGPkczMgpdqrlx1nZd0TDA0BIbB4d0sBXEnDd+YGGJDQwgMsaGxdX98DUNDAYuy37Hg/VWITf0DyQd+RUG7AfB3doSrogDbF83BN3F/IOXoIex/pjOGdHSADGew83dhHXYInhECP5vrSPl6KmZEJSCFLSPlaAJ2bT+BFt16wKujG9pkx+CwEDK9JmHuMCc8lROD+VO+wg6hbWoy4nbuxzM+A+Bp3QSau6HBl21egNiF07A0Rmj7B5Li9uKqWxD8POxhc4aFl/CnrBQafiOC0d/+DlKipmHJz8LrUnDgtxj8lnoRZTdushcQQh4nY4aGCY1p3E+tEY5zJZCaWeoqTFRuWvS9Uz3MwfRs7RG85kwCNmbq6gSqndkoYI9Wimd1FY6D4OckgSYzHiv2VT5Jl4WNO9KhgiXce/tqa4J6urHAKcGxLZsN1gdWFx0ntNVTsewz8YjU2wb2qSMuMZO1tYG9N6+qJE8pLEmKdv79INdVaSmLS3iJEGKqTDQ0WsDjramY3q8tVEc3IDzyNK+vO7cLLuP6v9c/cKodNYrOVtrhl2pQzh7Ky5S6+QoqjTZMJE35YISzJQsB4NrFw5XGLbgD+RA6AnJrV+2sg1wKlOUh46h21tBt/liBL1vSaTi2RG8wnN710j5n26rqGwFzf4jBwcsayL1GYe13K7F82nAE2dWn690IIbVlgqGhFxipGzBj1aFaD4TXxF83y3DrwvkHTiaB9c6qDJhqKDN2I3ZX1dOu5BzeqhIV6/m8Pxnvf70bJy6zsOo6CBOWrsTiUbrwIoSYLhMLjUqB8eXjCYx6K7tEGwBWjj20R/736WUHW/ZQePkP7ez1ctZPMbeHu6N21pC5BE15UUup1i5bdusKIqM2VTlF78vXta2SGrn7NmH+1MkY/fFPOFEqQbvBwQiuckMJIabChELjyQZGE9vWMHtrzAOnx+5iDI6x/bbELRBhfSqf/nFF8BAPFiZXcOZwurZmV6awk7eB35uBhiEj88CE/h7gV+vqHE/A+WLhyrFAhIi7MvkuWUvdqa0KqpPbceCc8NeSwcpFV0cIMU0mEhr1oIfx1FPCPw+ZHrd8REbE4LzGEj7vrsTaeaEIGT0KIe9OwfJvZmOoE3B+5xqs4GMYqk0xSFKyXbdXCFYvnoIJFW2Xf4AuN/MrnbZKw5otaVBK7DBw3hosnxaiW/boEMya9ynWrp6EAN6yMp93FiJqzaeY9a7Qnk2TFiC4Mwu1y+mIfZRbdAghT5xJhIZiWJguMI5HI9yIgXH99h1eerjbBZdw/d/fVjtlfvs1b/mYZW7GjIWbEMeO5GVu3TFwQD8M7OMFq7IsxH37GWZs0r8RMAFLpq1CbMYVwN4LQULbns7Ayc1YsuP+y4RV+5Zh+qrdyLgqjEsE6pbdvzs8W7EwOpCAFN6usuxz2ShsooBPH9ZeeE03Ba6x3saS8MhKV20RQkyNidwR3gK9+/kjbfdeVLqe6JEIX40+36EV2jQ1ODFzn+a9+mrv0xDCoSqXyjWYm1uAH9d9i5ELFiIxXXc6iBBC6gNj3hFugl8j8vi9M3gQJr/6GtJzsnlN1fw9PPC3mR8iPfvB7Qgh5HGi0HjMLGRSvOjbDfYKG15TtVPZF/Br8hE+Rwgh9QOFBiGEENGMGRomeHMfIYSQJ4VCgxBCiGgUGoQQQkSj0CCEECIahQYhhBDRKDQIIYSIRqFBCCFENAoNQggholFoEEIIEY1CgxBCiGgUGoQQQkSj0CCEECIahQYhhBDRKDQIIYSIZjK/3Ofr3wHpiSlG/W1w+w7NMfCfCjSTVp2dpw9dR1zkVT7XULjh7+8GwD73IFbvyOR1DdEjvs8OAzGxtzmOb9uC+Pt/CZcQk9LovhpdMSQM40PH4uPQnpDyOmMYNMm22sAQdOhphqAQaz5HCCHEJEKjaMcKfJdYAiv/kUYNjqYtnuKl6gnB8d63Tg+cRn1hDxcfY8YZIYTUTyYypnED+yMWIqoOgsMYzK2fge8wSz5HCCENl4mEhqD+BIesqRwdFb21jxVs2jblJUIIabhM8DfCW8B3zExM7G2Dwv3rMH997QfHhVNLNSFp0hyuLf3QgQWGQHO7DGeLk5DFJqH81Ts52nrR7g62bsOpVn3R73lHtJSw+ts3cPn4fvycdAm3dS11njKDy/MB8Otoi5bNmmirbt9U4vKpZPyadPG+z8HCuQuC/DxhL9e1VV/NxMFdV9FppP/9A8RPydE5KBC+7awhFZqzbSg6n4bdcadQLPp/iG7w2fzEL9ia64ZBge3RWljY7evIjI/Br2euQ+rkf6/+L/Y+Tx5CzKFK215H71PR83W84VmKuK9jcUpbU8EagSNfQucSvc+kuoFwqSP8+vrCx16OJsLZTY0SeScrb1cLOPn1Rg/97VfmYP/OOJwq1c4S8lgZcyC8iZW17Txefiwc7Foh71Ihn6uNW8hPTUKeVRf07R2AblaXcDj1MjT82ZroNuxeT+FhnORe8LV/FXYWHXgN+/CefgY2MmfYW3SCWlOCvVvO8mdEsnHF885S3DLvgOedynDq2ClkXbzK6h3g0NYVDpp0nCrgsfGUAj3feBm9nM2huZyB1ONncY61vWVpB+d2bvBorcLpzOK7n4OU7fSGv+AKK00BjqeeREZOIW6wbe3h64BmzzTBM39ewBHWXostO/Afw/B8m6dQmH4cqZk5uHzDAk5u7eHt8jTOpl9i/TwxrNHBty1kGgu4drDAlePHcSrvBqSKNnB0c0KLMgt07+uM6+nH8MfZQqhbtEY7tu1OT2XjRH6ZbhF1+D5lbTuhk205zh/NwhVtTQUpnDq7o9VNvc9E+7dphsJT6cipSAMpC8U3+qCDjB0snEjFybO5KHqqNTp06AAPq2s4dq5E28yl3z8wpKMU17OO42hGDnKKy2Fma4W/sk/fWxYhj5HMzIKXaq5cdZ2XdEwwNASGweHdLAVxJw3fmBhiQsOyeWs87/AqnmU9jKasp1EVod7BshO8unTA2cyLuHZVt/N4KO2OyQoWf53FfzbHI6PwCgoLL+FM1i20fc4erWV/IYPtsG+ypoqeQ/BCWyBv/xb8mJCNfN72LNvJX2zuhs6u7WBZksZ6PaxxMzcMGdIJVtdPYevmfTh5WWhbgJzMdJxt5grv1ux96O1MhWUHtS3H8f/+iF2nCljbK8jPycDpstZ4zr0dzJRsude0TR9CFxrW5mU49sN2JFxk6718ASfzm6NDR3u0bWuJK/E/45e0S9rtOX9aBZvnnGEnLX8s7/PRQqMpOr44CF7mBYj/4X9IyBbWdQV5Wem42IJtl3srPH3mNPLKXdCz37OQ5x9B1G8ntG0K83Jw8ngmctV/4bF26wnhjBkaJjSmcT+1RjjelEBqVneD0M+1GgAbqbjTWF5d3BE89iU+J17e8URc1t+bqLORK+ykmzXl4zZt2M7SDFCeQvzp+4/5Lx9ORd5fTeDi6qKrcH0W9pLbOJdcablM8e9sx8bLOnzZBaeQVMCrOHU663GgCWxa1/Cy4/yzSNU/oi7KQZ7QkSjLwRH97f/rHHKF4wdzOWy0FXX5Ph9Rs/bwcGiCm+fScLxSb+EyO1BQQ4429sLcDaiFTbdxQmdzYZ776zZuU2KQBsBEQ6MFPN6aiun92kJ1dAPCI0/z+ifPzEzGS2JdR/F9Ha/r+FPYMcnksNLOm8GCHTTfLLgEfhxs6K9iFAsHA3JrtGQPCrmwtyrGpYvCk5X8dYsXKuiWjVbdMPbdMZioP433h7AftJALSxXvz2uV31A5bgn5rrnFSoZuCTtSSVM0087V5ft8RBZm2gBv5j7Q8DMSpr931D5nbi2E6yUkJpzDn03bIHDkGIx5rTd8Hc1Y9BLSMJhgaOgFRuoGzFh16L6BUSK4hduV99APcDPvBOIPJVY9/XGJt6qPavY+H1Vx1pGqPyM2JWbpRrnVWfuxaf0WxKRehKqFC/wGv47Qf3RD64ffFkRIvWdioVEpML5sLIHBeh5l7Ci3VRvtEfZ9nmqJlmbA7SuF2iP0mzeFo2xrKLSnSypp1qzSUW85brJeQLNnbuDMiVM4XtV0sebjRbVTl++zgjlaVl44X+4DlbHeEnuQ3b5a9WfEpswCvfTSXMe5pN34cdNG/JhchNtyT/TvQd8uQEyfCYVGYw0MwSVkZN8A5B0R2KEFr7undQ9v2D9Vjpzzukt+/8y5hD/RFO29dadN7mkCpwBPtOZzOjnIyrsNtOoIv1a86ompy/fJ2l8XBhvM0NrRcNnS59zZcvlMdUrP4ZySZZGLFzobrqySJmgiXDZ9120UHTsL4aJFWYuHJRMh9Z+JXD1VN4Eh5uopJ7k3pHo38T1MwaWr+HXHIT73EFVd1skp2vugncX1u1f6lF4oQAvXjnB190SH1s3RtJk5rG3bwrt3EAKcWuDPEzHYmsYXoi7EDUUHuDk6wcPVEpKnpGipbdsXXf66hmsW5pDpXVVUfEkN+w6ucO3UCa5yCZ6SydHKVoF2HX3RM9AZd/44V+lqo+rorp5qVpiBPy7qD2Tzq5PYUk4ezzX42z3O93lbeYtlozMcnNqjndnTeNq8Jdp17oV+rndwpVwGs7IHXT1VhrwrzdHBox3aP+cG++YSSCxbss/JHh06d0OgryUupeez9+aKYWNfxHPypnha+znawzPACy6ycmQkHML5P7VLJ+SxanRXTymGhekC43g0wo3Ywyi/8fDLWTR3+P0DIl2/ruIlI/urCPE//Ae/ni7CM0KvoKc/AnuyndHTV3F873+w6ZD+HWjlyIzdhv+lXoJK5gJfoa1/e8iLj2HbzrP3DUZDnYmft8YhOU8Ny2e92HJZ+x7d0NmxKZTH01hf5DGqy/d58xz+90sickqaQNGhi/Z9ephdwm9bE1B0h7d5kIJEfL81EZnFTdC6k+71gT280N7mFnLSMqHbsmJk592ERbuKz5Ftu6QASf/9L+JytQ0IMWkm89Xovfv5I233Xih5jTEIX40e9I41zG2e4TX3E74qpHOrAWhj7s5rqvfrzkNYs3wzrpcaK9YIIeTRGfOOcBP8GpEnQ7gHY8L7I/CsmyOvueePY2ewcd3PSDuWwWsaniZSM8gedN3o7Rv4U23wpSeEkHqCQuMJGjCkpzY8ZGYtoLp+g/UsorFL7BiGCes4ZAyCHvT/rsH/qBMhpotC4wkzM5eiZ6APDsWn0KkoQki91+h+ua++EYJC6F1QYBBCGhsKDUIIIaJRaBBCCBGNQoMQQohoFBqEEEJEo9AghBAiGoUGIYQQ0Sg0CCGEiEahQQghpFrXr5caTBQahBBCqmVmZm4wUWgQQggRjUKDEEKIaBQahBBCRKPQIIQQIprJ/HKfr38HpCemGO2nXgUOzu3wt3+MRLPmzXmNofTUY/jtv//hc6akO2Z9Ewqf4hi8PnMzr3uAUQuwZbACKV9NwKIDQoUUr8xbiRFuaiRFTMYSbd3DBUxbg7CuRdg+Yg428jpCyJPX6L4aXTEkDONDx+Lj0J5sd2Y8Q//xZrWBIfDw7oL+w17mc42JHGYSXiSEED2m8xvhobMx2t8S1xK/R3jEIaP0OMLmLuSlR3OzrAz/++F75Gaf5zVP2qP2NGqHehqE1E+N8EeYbmB/xEJEJZbAyn+k0Xscj0rorTTOHgkhpLExoYHw+h0cFnIrXiKEkIbLBH8jvAV8x8zExN42KNy/DvPX135w3FinpyqsmD+bl0S6e1poKvY8OxXBAa6wlbH6Oxoo89Lwy9pV2J6pawoMx+LoQbA9GoHRSxJ4HXff6SW901ORJZg2bhC62FtCIhwiqK4g42A0Po1KhkpoKqji9FRVp5pk3Ubhw1E94GIt1S3rjhqFv2/FxBW7tc/ffc3Yzbg+YRRe8rGDTGinKcH5uI2Yr79Ogdsgw21j7XKPxiBiRQwydC3ubdvXkSjoH4yBLpZAaRpWjF+GgzJfhEwfgV4uNpDxMRhVUTI2T16FWN0sIYRp5L8RfgPJ6z/D6v1XYNt7LOaO8alXPY7akPjNRFhvBa6l7Ubsrt04mKmGzNEXwVOmIEgIkdp62g6zpgyHJ7Jx4De27H1pyIUN3AeEYu4oV95IpK6hWDylH9ybFyFJWNaueKTkaWBra8MbVJDBc/YUvGav1LXbl45CWKLdgBBMG6z3l3JjITh7OPxaA+cS+fu+KIGD/3DMXTCULcWQ/Ssh8LwQjXEj3sbrQmDAC2GfTsJANykKj+heH3c0HxprBWz5awghxmeCoSEwDI5Z/2jD602RFJ7tlVj3z8kIX7UJkVGbsGLeZMyPuwLIvfDqOx68XS04ekCRtBCjZyzDGrbcyK+X4f2wzTihkqBd/xF4hTcTw6+3B9sZq5Hy/RysEJYVFYlFMyZj3NIY3qKCDRywG/Pf/5yv83PM2JzOehhSuPu/wNvYITikH9ohH7EL9d73R1OxJk0NiVsfjO3Mm2pJYaXcg/CvE6DkNfAPhKeC9SyOR2MGf/2aJR9i3KSl+IU3IYQYn4mGho5ao2H/SiA1s9RVmKjCI5sRZ3DeBshYuw8Z7O3ZOna976hbtLJMxEVl8RlOFYOtaSyQJHbo0IfXiZCnFDZQinb+/SDXVWkpi0t4qYIaJ2I33zu9xKh2/oHzZWyVTfk7cRwEPycJNGfiEXn39JtAjbjETBYwNrD35lVcwbmdhqe28pS4zh5kTr4Y2FJXpcW2526wEEKMzkRDowU83pqK6f3aQnV0A8IjT/N6U6RGXmY+L+u7AjXb0UKugI+uouaK8hHHi/pO8ACQO+rmxcj9IQYHL2tY52cU1n63EsunDUeQXVUnBpUoOMKLdymhzfeWdggQZp0ttUEo6TQcW6I3GE7vemmfs23VXWjJqVGUXWnk6uJWbD98BRrWGwtZvQFrF09BcB+72gcsIUQUEwwNvcBI3YAZq4xzz8YTdZs/VqVMXfsj5zsaw6NzAxqUV//k/VTxWPH+ZLz/9W6cuAw4dB2ECUtXYvF9YyMaaEQuV5mhG4uoatqVnMNbcfd9RqxXsmoqxk2NROxxFrr2Xhj67qdY+8lwuPMWhBDjM7HQqBQYXzaAwBCO+J2rOGJ39IC9OdsFK/NwglcJZFZOvHRPQCsFL1VScWRfyVAnO/ZvCYoMTg2JoUbuvk2YP3UyRn/8E06UStBucDCCa3p4r1Rrw0x264p2LKKqKXpfVb2v+6ny4xG56EOMG/85ok+qIXEZhJBRpn5pBCH1lwmFRkMMDJ12XUbA02DHK8XQt31hy47az6Xu4XUlUAmnq1o5Yah+W9kgvNChmp2kuRteGFppvMctBAM7SSAkRnwNrnyWtdSdUqqgOrkdB84JfwEZrFx0daIdT8D5YkDSPhAhbryupmSWkBtsUDq2HRTGQ9hTcmddHSHE6EwkNBpuYAinc5TNu2Pu8gUIGz0KIaNDWHklgjtJocnZjU3bKt5pDPYcL2F7RA8EV7R9dwqWrxgO29IrvE0lpRo4DF+K1bNC2HJZ+0kLEDUvkIVRCVK2bUQKbyaGzzsLEbXmU8x6V9hG3bKCO7OwupyO2BrfdpOGNVvSoJTYYeC8NVg+jW8fe++z5n2KtasnVdlDMtAlBF98I4ytVLw2FItHCuMhV3AiNp03IoQYm0mEhmJYmC4wjkcj3IiB8afSeNfZFFW6AUY8Dc7/sAzbsmXw6d8PAwcEwtNajdzEzZg/0/AqpIPLVmLj0XyoZE4IGMDaBjpDc3AVZhyrZhCh+DCmRyWg3DGQLZe17+EEXM1C7LKZWLSvZp9i9rlsFDZRwKePsI1s6qbANdbbWBIeabCNYqn2LcP0VbuRcVUYH+Hb1787PFsB5w8kPDzQsjNx/qoErXwqXst6ZqWst7FsNtbU+LQbIUQs0/nCwn7+SNu916iXUz7r7gG/vn2haNWa19SOED7xsTE4m1HDI1wjfVEgIYQ8iDHvCDfBrxFpQCg0CCGPQSP/GhFCCCFPCoUGIYQQ0Sg0CCGEiEZjGoQQ0sDRmAYhhJAngkKDEEKIaBQahBBCRKPQIIQQIhqFBiGEENEoNAghhIhGoUEIIUQ0Cg1CCCGiUWgQQggRjUKDEEKIaBQahBBCRKPQIIQQIprJ/HKfr38HpCemGPW3wVs4NUOr12zwdPOneI2h0j9UKNp+jc8RQohpanRfWKgYEobxoWPxcWhPSHmdMbR6vfrAEJg/J4NiqBWfI4QQYjq/ER46G6P9LXEt8XuERxwySo/D5aPap6++WyW3cPXXEqjO3OA19ZvnyA8wIagpksYuxEZeRwhpuBrhV6PfwP6IhYhKLIGV/0ij9zge1TOWz0AeaMHn6j+5nTNsZRI+Rwgh4pnQQHj9Do5mrWgnTAhp+Ezwl/tawHfMTEzsbYPC/eswf33tB8fFnJ4a1+0dOFs58zmdS6WXEXlkPW7cunc6akiHwdg+PxbZWRd4jQijFmDLYAVSvo5EQf9gDHSxBErTsGL8MhwUnm/ZHSGTX0MvFxtUdAw0pVdw7nA0Po1KhkpXBfSagqj3vFC4823M2MTruIBpaxDWtQjbR8zBRt5Oxp+7KycGr8/crCu7DcK0cYPQxd4SEuGQQlOC3KMxiFgRgwxdC8YVQ8NC8JK3HeTNdTUaZRZiv1qIjfSjjITUO438l/tuIHn9Z1i9/wpse4/F3DE+j7XHUVVgvOr5Mnq09Uf4ihlwdm3La8WzfyUEnheiMW7E23i9IjDchmPx0lAMdLeE5lwCYnftRuy+NBTABu4DJuHLaYH37/wfJjsZu9hyki5q2EwJTgjLFKb4U7rnhXXOHg6/1sC5RN1zBy9K4OA/HHMXDOXrk+KVBTMR7K9AeWa87vWHs3BNooCDXNuAENKAmWBoCAyDY9Y/2vD6uidvYcmme3tHITC62PloyzIzKQIHBWjL4klhpdyD8K8ToOQ1gB2CQ/qhXfMS1guZjHHzIhAZtQmRXy/D++MXYnuOBvKur2FCV95crIvxiGbLSSwUQkOJ88IyhWlnGpvn60Q+YhdORvgq3XMrPpqKNWlqSNz6YGxnYSEvwd+NdXsu7seMRZG6169aiIlhs/HVMeF5QkhDZqKhoaPWCDs/CaRmlrqKx6DFMy3wpvcI7aMVCw8PRUf+DLA/9hA2rvqez4lXcG7nvVNNAsdB8HOSQMOO5Ffsq3zyLQsbd6Sz9pZw7+3L64ygYp1n4hGZyeu01IhLzGTrs4G9tzB/BSphY1u7YXgnvT6eqgRKgzdBCGmITDQ0WsDjramY3q8tVEc3IDzyNK+vG8IpqX8lrEGZpkw7L4RFSLfRbP4m/p2mC4lj+SmI+DRSW64ZNYqyKwWDs6X2VNC1i4cNw6TCgXwUsge5tatu3hj4OiWdhmNL9AbD6V3dOIhtq+7s393YvCsLqiZOGBi+BlErZ2PCYC/QmSlCGgcTDA29wEjdgBmrjHPPRnXy+RjGpdJLWJe8/m5wtDFvgyDXvjhfnI2dGTHYeuI/2vpauc0f6wFlBh/nqGLalZyjbZOxZSFGT1qG6MQcqKSuCBo1BWtXT0JQjQdZCCGmxsRCo1JgfFm3gSHYcXrn3UFvITh2nInRlgU+dl7ax0M5CdpHo8ku0fYwrBx7VD3Y3csOtuyh8PIfunnOSlH5dJUULjYiLxNQqrXrlN26ohunqGKK3pevaysoTsO2FXMwcexkrDhwBZqWvgieIPRECCENmQmFxuMPjKocy0vRnq4SCOMadeJiDI6x/bPELRBhfSrv9F0RPMSDhckVnDmcrqviISN39IK7rkbHbQT8nHj5PnLY+vOi4HgC6zWxdbYPRIgbr6uSJeQteVGrBAc3pKKAlZpa2OiqCCENVhMra9t5vPxYONi1Qt4l4Yx8TdRNYFjV8i5urzad715BFXd2r/ZRcO3An7wkkldfvOEmw+UjO3DA4PaOUqScb45uAZ7o+PwAvNiZ9SycO6KLXz8Ev/sGutnewfmdX+LjWLaXF/xZAJsuveHu6IJeAe6wbeMCr17D8N4Id9wu0kBmpsaZrXshXCMluPqsH/7u1gqt2jpCbtcZrwa5Iy5hD9LULujzvBs8ew9AD5fWcGjviS7e3TDo728g+HUPXNv5Oy7gZSxYNxF/f84RbYRtYs+/NDIArmY3cWpnBPZnChcnEELqE5lZ7b+xolx1nZd0TKKnoRgWpguM49EIN2IP485N493XKHz/lFFlbsaMhZsQd04NmVt3DBzQDwP7eMGqLAtx336GGZuyeENBPjYuikDsuRLA1gNBQlsvKc5vWYroPN5Ej2rTRmzLKIHEzpctNxAOzXXD7ap9yzB91W5kXGXh3jVQt87+3eHZCjh/IAEp2lY5yMjTwKpim9jr3Zvns21aivk7n0TfjxBSl4qvFRtMpvOFhf38kbZ7r969DI9O+Gp04Vtshe+Oqgn9u8Q/+nWONjCEr1C/kXNTW0cIIfWJMe8IN8GvEXny5qz4AB29daMHI3q/o30khJD6ikKDEEKIaI38u6cIIYQ8KRQahBBCRKPQIIQQIhqFBiGEENEoNAghhIhGoUEIIUQ0Cg1CCCGiUWgQQggRjUKDEEKIaBQahBBCRKPQIIQQIhqFBiGEENEoNAghhIhGoUEIIUQ0Cg1CCCGimUhotICvvw+kfM5Y/N1vIHXleZxbl1XltHhMAW/ZwMmG4uP1G7Bl9SQE8CpCCKmKSYSGYkgYxoeOxcehPY0aHF//8zIspLf53P1e61naOIKjpQxNeZEQQh7EdH4jPHQ2Rvtb4lri9wiPOAQ1f+ZRCL0JY8i9+gw+3qzArykyXkMIIfVHI/zlvhvYH7EQUYklsPIfafQex6NysL6FyS8V8zlCCGm4TGggvH4Hh4fjTV4ihJCGy0ROT+lrAd8xMzGxtw0K96/D/PUptT5VVavTU61fBZzf4zNM4gu8ALiMdeUlsVwxNCwEL3nbQd5cV6NRZiH2q4XYePcjksJv9FQEB7jClp/9UhVl4cCmpYg8UvHOu2PWN6HwKY5B+CE7hA7zggNrm3chH/Zt7ZD724d4/9t83pZzHIXli/uhVeZ2jJuThzD++tdnbuYNdOQ9RmHa8B5wsZZCIhxi3NFAeXY3VszZjBPaFmK2D5B1G4UPR+kvR43C37di4ordugaEkDrTCE9P6buB5PWfYfX+K7DtPRZzxxj/qqoHeqbSuEWz1rxQU1K8smAmgv0VKM+MR+yu3Yg9nIVrEgUc5LwJaxM07TNMG+AKWXEa4oQ2+9KhMnfFwCkLEdaVN6tg3g2TB0pwYPkEvD7ibfzfgqPI0AAOnQeh8n8Zh4HerE6NjAM/QcXrKnMftQBfTeoHd3MNziWydQvrT8xBuUwB3SaK3L6uoVg8hS2neRGSfhOWE4+UPA1sbW14A0KIqWhiZW07j5cfCwe7Vsi7VMjnausW8lOTkGfVBX17B8C7WQriTl7nz4kXJmYc4hkzoMsWdsj9PGDhBbRhPQ19igFA05as0xAOB0c7/BaXyp94mFcxZrw7rC7uxcQ5UUhK/QMpv8dj557DOH7pJsrYzh69JmHuMCdo0iIxce5mHBbaHD2Enenm6BHgCffWt7F17xnW0BG9hvqijVyDE6vDEZkmvJjRpEPu8zd0drKA2ZlfkXT3Y/fAmNEvou2ddESvSMCFitffyMKW3br+g7CjX/C2JyyUaVjzf3MQeZCtu2Ibf/2dvYYRuX1+I4LR3/4OUqKmYcnPwnJScOC3GPyWehFlN+i0HiF1TWZmwUs1V64y3LeaYE/jHrVG2DlKIDWz1FXUBaeJuuAQAkMIiMqE54RTVuzx1WHd4dHBkT/xMFegEg7xW7theCe9vpKqBEp+6D+0twdkrF3Sd/GGvYHMrTjBeowS9lqD+ypKs3HsKC9z2w5kstfawDOIbX+Fri/AUwEoT+7BQV5VWUBfL9iiBEnrliGumq6I2O3L074hKdr59+M9FB1lcQkvEUJMhYmGRgt4vDUV0/u1heroBoRHnub1dcCqBy9wNwuA7K+A9CnA5W288p4xo+6NcTzYbmzelQVVEycMDF+DqJWzMWGwl8FO1cpMwv61QdDiDdgSrT+twUAhm8zlcNG25JRFSOLFu36Lx5lS1lFqHwgfXhXQ14OtJx+J29J4zf1cbFiQleUho1II6RO7fbk/xODgZQ3kXqOw9ruVWD5tOILs6tNlDIQQsUwwNPQCI3UDZqwyzj0b1To1lXVpzvIZJns1C4utwJ9shyuUrx3iTwBb/5uA6R9F8bmHy9iyEKMnLUN0Yg5UUlcEjZqCtasnIUh/2KQsH0nCWEGVUwIMLim4o6lifCIBMSfZEX1LN7ygHWPohxc6SKHJPIrNF7UNqsd6ctV0Mu4Rs32qeKx4fzLe/3q3tgfi0HUQJixdicWjanrhACHkSTOx0KgUGF/WcWAIVFnALb1dp15IaAnPc1t/PsxLNVCchm0r5mDi2MlYceAKNC19ETyhu/ap6+UaoHlTqPZsQmRUVVMMUrQtHyyF9SgKYQnPvmy5g7vCXfbgAXCBdt3m9ujcmVdUoWbbp0buvk2YP3UyRn/8E06UStBucDCCK11XQAip30woNJ5AYAhk7Gi4mS2fYax68gInPM+9Mqw7LCxa8LmHsYS8JS9qleDghlQIX1rS1EJ3VdGu4znQwAZ+bwbikfatF2NwLJ9tavvuCPN3g6Q0E3t+489VY1eibizE783hcOd1lYndPllLS4PnVSe348A54a8ng5XB+TVCSH1nIldP1U1giLp6qusW3WB3BfOOukcJ2+PbjwCs++rmGWEQXGFjKfIKqpexYN1E/P05R7Rx7ogu3t3w0sgAuJrdxKmdEdifqYEmPR+ybj3g6e6LIUGd4WDrBE9vL3TpNQjBb72FF2x24Lc/hGVVcfWTgVKcseyMId5ucLCQoDTte6xO0v9Orftfr8lMwZ/tesGvoyeCBvjBzc4O7Tt7wb/faxjzqif+/PV3nBW5fX4Tv8BnowLh5qBbRpder+Glrgo0LUjGNxtTcFW7RkJIXWl0V08phoXpAuN4NMKN2MMovdGElx6g8mC3cF+G80TAfUGVV1Ot37SHlx4mBxl5Gli5dcfAAf3YFAj35vmI+3Yp5u+seIdZ2LhQGPPI1977EKBtx6YuzmhanIy4RN5MBNXOUzinkUAiefAA+D1qxC2ZjRW/ZaEQCvj00a07qJMc5dlZyNa2Ebd92eeyUdjk3jIGdlPgGuttLAmPRIauCSHERJjOFxb280fa7r1Q8hpjEL4a/Yt3CmBvfYvXVEHoZXh/xxKG7WiFsQ3Fi/wJ7mYBrl9KQJksANt3/YGFn/3AnyCEkPrBmHeEm+DXiDxZYe/9jU1D+RwQ+OJHyM2/wucIIaT+aeRfI/JklZbe4CUdCgxCSGNCPQ1CCGngqKdBCCHkiaDQIIQQIhqFBiGEENEoNAghhIhGoUEIIUQ0Cg1CCCGiUWgQQggRjUKDEEKIaBQahBBCRKPQIIQQIhqFBiGEENEoNAghhIhGoUEIIUQ0Cg1CCCGimcwv9/n6d0B6YorRfupV4ODcDn/7x0g0a96c1xhKTz2G3/77Hz7XGHTHrG9C4VMcg9dnbuZ1hBBT9yhfjX7hdDov6ZhET0MxJAzjQ8fi49CekPI6Yxj6jzerDQyBh3cX9B/2Mp8jhJDGp6VVS4PJdH4jPHQ2Rvtb4lri9wiPOGSUHkfY3IW89GhulpXhfz98j9zs87zGVNVBT6N/KJa/4oa876diyQFeZ2yPYx2EmLBG+CNMN7A/YiGiEktg5T/S6D2ORyX0VqhHUo3WdnCQS9GUz9aJx7EOQoiWCQ2E1+/gsJBb8RIhhDRcJvgb4S3gO2YmJva2QeH+dZi/vvaD48Y6PVVhxfzZvCSWK4aGheAlbzvI+dCKRpmF2K8WYqP2IxqOxdGDYHs0Ap9mdEfoMC84yFj1nRJkbGd1m9PhMHSKXr0auSm/IGJJDDKEl1eQeeCVsaMwSG89KCtBbmoMIlbot63q9JQUQdM+w4SullBlbsenc37i7aXwGz0VwQGusBXWzaiKsnBg01JEHhH+Irptb6d76p7SNKwYvwwHhbLMFyHTR6CXmw1kwuEL2/7CzMPY+MUmJKmEBjruQychdDB7j3KJrkLD3n9sBMK/f+7h6yCEGPX0VBMra9t5vPxYONi1Qt6lQj5XG7eQn5qEPKsu6Ns7AN2sLuFw6mVo+LM14d8niJeMI2n/Xl4SQ4pXFnyCt7xk+PPUIRxIzURW4R1Y2SnwVEYMDlwQ2nii/2tukN1WwN/HGoVHDuNYdhks2jjCybMLnMzdMWSYG1RH9yMpPRdlcie4unrB0+48dv5eoF0LZIGYtngSBrqZ4/alNBxMPIGMswW4besEFzcv9OrWHCd2n8BVbWNH9BrqizY3srCF1WmDYdxsvNdTgTvnYvDx7B/vBoYQJGG97IACvszcMtg86w6vXv6wy/4VSZeaoLm5CpduWsPVtglyE/fi8MlzyMo8haMncvAn265ZS0LRi/1fLjyWgMPHM3GhzBruHp7o1b01smKSIfxXlb0yG0uHe8JMmYH9h9J0225lh1Z3MrD98KUHr0O7rYQQmZkFL9Vcueo6L+mYYGgIDIPDu1kK4k4avjExnmxovIox491hdXEvJs6JQlLqH0j5PR479xzG8Us3UaZNQV1o2FrewuGPp2LJr6zN0UPYWeyCId0c0dbVGpdivsCMtfuQkpqC/fFN4TXIHU7syP8U2+kKn3JA2Ey8+ixwfuciTFy6A8nCelKTEbdzN6626wW/ju6wf3o34tKFFRqGhvuo2fjgRUcgJwbzZ22+1yPpNQlzhzlBkxaJiXM3s9Dm25Vujh4BnnBvfRtb98bjjFDv1B1vuDXH2V8WYeUvbJ7vzIXt+ruLBilfT2U9ht/ZNv2B5AO/4oS5H3o954Y2f/2CuFPAiLdC0NEqH7/933x8c4Rve8xeHDhdgLIbuQ9cByFEx5ihYdI396k1wo5OAqmZpa7CpFyBSjgF09oNwzvpjc6oSqDUOzWjdTEVGzN5WXDgFM6XsceyTBzYlKWrE6h24rxweC5XoL22YhBeEJZdnIZo/XZaasStOYzz7PNz936J193jPvQDTBvsxAJjNxYt1AsMZmhvD8jY9id9Fw+DTc3cihNs/RL2ngJ4VdX4dl1OxsZ9hicXM7ako4Btk4NLd+18oUp4XgH314V1VlBDWWyM6+cIITVloqHRAh5vTcX0fm2hOroB4ZGneb0p2Y3Nu7KgauKEgeFrELVyNiYM9oKcP6tPVcja8bKOEtq8ZP9c01VwamjusAeJBGbaeUvImrNml7KQop2vRJUDZSl7bKmAn65Gp2UPTBvJdtJFyVi3cBNOVAoxKzNhbMEGQYs3YEu0/rQGA1nHBOZyuGhbVke3XWgdiOUGr2fTun4Qzr7KbFhgMbFb9iCjVIJ2Az5A1Lql+PjdQfBpqX2KEPIEmGBo6AVG6gbMWGWcezaehIwtCzF60jJEJ+ZAJXVF0KgpWLt6EoLuHVI/GaoiFLCgkMid0blbNdeoleUjadduxFY5JUDMpQ6ai8lVvJZP8ad0jTJ/Qvj4yVi0JRnn1VK49xmOWatWYlqf+nTtHCGNh4mFRqXA+NJ0A+Ou4jRsWzEHE8dOxooDV6Bp6YvgCbpTM4+uBKoytvNv4wofXmNA5gS5Odt5F2UjiVdp3cxE+OcxOM96EwHvzESI/ukz5no56+Y0bwrVnk2IjKpqiqm6Z3OXCsIiJBI1dlX5ejbtTONtBSVI2bYKMyZPwLhVCSi8bQm/kaEPOQVGCKkLJhQaDS0wLCE3OM1SgoMbUiFc89TUwkZX9chikJTJPqWWXhgxypXXVZAiaEIPtIMG51L38Do9mZsx/9tkKIXTZx/MRLAbr2d2Hc9hr7KB35uBeuMMDyKFXDhtddcenMxmqdGaBeRDegzylobjVcrDG3FMGLdpLoOtroqrvA5CSF0wkaun6iYwnuzVUy9jwbqJ+Ptzjmjj3BFdvLvhpZEBcDW7iVM7I7A/Uxi04JfcXkrGz4dzdS/T4lc5sYhJ2p4A7dW5nFe/l+EuL8GZrXshHKtnHSuFW6AvOnbujSF+Lmhj7wov7x54dVwIBj4rhfJoFMIjs/gly4ZXT2myf0dcsQv6PO8Or4AuaHGCLbOY9UzS8yHr1gOe7r4YEtQZDrZO8PT2QpdegxD81lt4wWYHfvtDu0CWjT4Y0q01bFt1ho3CCX0G98DTBxKwM1eKbgEe6Pj8ALzY2Q622s/AC4GDRyD47d6w+UW3/W/M/Qbvv9QZTq106/AfPBJ93KQoO/0rVsbz7a5yHckGnwshjVmju3pKMSxMFxjHoxFuxB7Gn0olLz26oko3wDxcDjLyNLBy646BA/qxKRDuzfMR9+1SzN9pxD6UKh6Lpq3CtuP57MjeC0HadXWHy9NFSPnvKvzfkkpXQFWi2rcMS3aynoXECUNnLeA9jixsXCiMxeRDZe6KAO0y2dTFGU2LkxGXqH2pzoEIbDzM2lm4atftZ62B9lMXejKf/4Ski2rI7n4G7Hnnprh2JP7u6bJzZ/Kh0VtHkJsEufs24dOPY+5td3XrIIQYnel8YWE/f6Tt3mvUncGz7h7w69sXilateU3tCOETHxuDsxmGXyFMCCH1gTHvCDfBrxEhhBBSE43wW24JIYTUBxQahBBCRKPQIIQQIhqFBiGEENEoNAghhIhGoUEIIUQ0Cg1CCCGiUWgQQggRjUKDEEKIaBQahBBCRKPQIIQQIhqFBiGEENEoNAghhIhGoUEIIUQ0Cg1CCCGiUWgQQggRzWR+uc/XvwPSE1OM9lOvAgfndvjbP0aiWfPmvMZQeuox/Pbf//C5+m44FkcPgu3RCIxeksDrnhQpXpm3EiPc1EiKmIwlB4S67pj1TSh8imPw+szN2laEkMej0f0Ik2JIGMaHjsXHoT3Z7sh4hv7jzWoDQ+Dh3QX9h73M54h4cphJeJEQ0qCYzm+Eh87GaH9LXEv8HuERh4zS4wibu5CXHs3NsjL874fvkZt9ntc8CfWpp1EV6mkQ8qQ0wp97vYH9EQsRlVgCK/+RRu9xPCqht0I9EkJIY2BCA+H1Ozgs5Fa8RAghDZeJnJ7S1wK+Y2ZiYm8bFO5fh/nraz84bqzTUxVWzJ/NS2K5YmhYCF7ytoOcD61olFmI/WohNgofUa8piHrPC4U738aMTbrnKwRMW4OwrkXYPmIONmpr7p2emrjfFR+O6gF3hS5WNcp8HNsZiSXbs7TzWjJfhEwfgV4uNpDx8QdVUTI2T16FWN0sY4mAdyZjhL8TbM15I00JMmIjEP59OjBqAbYMViDl60gU9A/GQBdLoDQNK8YvA+7bPr3TU5ElmDZuELrYW0IiHLaoriDjYDQ+jUqGStuWq9hGN7aNQrs7ahRmHsbGLzYh6W7DivcdiTVX+mFsfyfIn1Yj5asJWHTgIZ8vIY1EIzw9pe8Gktd/htX7r8C291jMHeNTr3oc4knxyoKZCPZXoDwzHrG7diP2cBauSRRwkPMmtdG8O+a+1xutitPuLlMls4PfyMmY1afik/JC2KeTMNBNisIjrA1rF3c0HxprBWx5CyHQgj9birD+rrDS5OCgsCw2HTyngUzBwkGP/Ssh8LwQjXEj3sbrLDAO8voqPW2HWVOGwxPZOPAbW+a+NOTCBu4DQjF3lCtvxMgCMWsJ20Z3Ka6l6D6fuJNqWLn3w7RPWfjwZne1HYYJnXOwYRLbhhFCYNTR50tII2eCoSEwDI5Z/2jD603JS/B3Y0fvF/djxqJIREZtQuSqhZgYNhtfHeNNakHWyQ3KDZMxbl7E3WWOWxiPQtZr8HklmO2sGf9AeCrYAf7xaMxYxdqwdmuWfIhxk5biF+1SAJ9JEzDUSQIlO4IfN3EhVgjLYtOKeVPx/gr9gXYprJR7EP51ApS85oEcPaBIWojRM5ZhjbDMr5fh/bDNOKGSoF3/EXiFNwuYMAI+ctZj+Jqtb4nu81mzaCrm72LhpvDFqxUNOZlciV1zInGwmFfU0edLSGNnoqGho9Zo2L8SSM0Mj3xNwxWohFMsrd0wvJNeX0lVAqXBOZoaupyMjfsqnbDLjMSeTPZZKZzgJ2PzeUpcZw8yJ18MbKltoVPM1q0tdMegzjZsPhlfLYk3PGVUhYJzOx/a5q6yTMRF6Z0mE6hisDXtCvtT2qFDH6FiEF4QPpMq3kvGlnQUsL+5g0t3XsNdzsYvBhtRR58vIY2ciYZGC3i8NRXT+7WF6ugGhEee5vWmZDc278qCqokTBoavQdTK2Zgw2AuPeuZEVZCJXF7WV/inELBytOrCHi5uxfbDV6CReyFk9QasXTwFwX3sIOSJjhPk5oDmUhZSeE311CjKrsGoUlE+4nhR3wntnlwKuaMwZwmZMAbROhDLozdgi/60rh+Es7MyGyeh4V2q4pxKwVU3ny8hjZ0JhoZeYKRuwIxVxrln40nI2LIQoyctQ3Qi2+FJXRE0agrWrp6EoHt775q7JYRDddRQabsSasStmopxUyMRezwfsPfC0Hc/xdpPhsNd206n/JbIQ/Lb/FGMO5oH9Eo0KNd7UnMxWTcWUdUUf4q34qp433Xy+RLSyJlYaFQKjC9NNzDuKk7DthVzMHHsZKw4wI7+W/oieILhqRcrhS8vVZDCxabq4X/hCPz+faIdOtuz9holLupdNaTKj0fkog8xbvzniD6phsRlEEJGCctVoZztg2V2HroxEGNqaYcAXtQ31MmO/VuCokxhTrd+iUSNXXws5b5pZ5rQ8OFEfL6EEPFMKDQaWmBYQq4/nsB2mAc3pKKAlZpa2Oiqsku0R+VyRy+DHgDcRsDP8OzMPU7dEKx/Dp+RDR4Fv9YsM7JTsUtbwdatnyyqdGw7mKldl0zuzP7dg6Qz7NNlYRWsf0WTMZi74YWhlcag3EIwsJMEQmLEa0NtD05ms9RozdZ/94qvmhLx+RJCaqyJlbXtPF5+LBzsWiHvUiGfE6tuAsO/TxAvGUfS/r28JMbLWLBuIv7+nCPaOHdEF+9ueGlkAFzNbuLUzgjsFwau/yyATZfecHd0Qa8Ad9i2cYFXr2F4b4Q7bhdpIDNT48zWvdAdc3ui/2tuMFNq4NRvEPzsW6Kthxf8B7+Nf/Z3QnNNDnau+hrJwtVF/hOxav4IBLnYwaG9J1t3D4wY7AvbZleQtPY71kaDM0dL4Rboi46de2OInwva2LvCi23joNffwiudS7ErKRfw6os33GS4fGQHDlzQbsRdbXv8Df52+tvniF5DfdGmXI2mXf6GgR0UaPMsW3ev1xD2lhesnipByr+XYosQFtDgRK4U3QI80PH5AXixsx1stZ+RFwIHj0Dw271h84vh+5ZdSsbPh/VHc0R8voQ0EjIzC16quXKVcNnMPSbR01AMC9MFxvFohBuxh/GnUtRFoqIUVboB5uFykJGngZVbdwwc0I9NgXBvno+4b5di/s6Kd5iPjYsiEHuuBLD1QJDQzkuK81uWIjqPN6mk/OxPWLQ9GzIvYZn9ENTJEqqLydi4cA42ak/9MNmZOH9VglY+gbp192eBUcp6G8tmY01FG1U8Fn3E1p1xhR3xe+nWzbbRs2U5e3kOb1QLxYcxPSoB5Y583T1Yl+lqFmKXzcQi/SulMjdj/uc/IemiGrK7n1E/+Dk3xbUj8Ujizaon5vMlhNSU6XxhYT9/pO3eK+5eAJGedfeAX9++ULRqzWtqRwif+NgYnM1I5zWEEFJ/GPOOcBP8GhFCCCE10ci/RoQQQsiTQqFBCCFENAoNQggholFoEEIIqVbxtWKDiUKDEEJItVpatTSYKDQIIYSIRqFBCCFENAoNQggholFoEEIIEY1CgxBCiGgUGoQQQkSj0CCEECIahQYhhBDRKDQIIYSIRqFBCCFENAoNQgghopnML/f5+ndAemKK0X7qVVDm3hYFE17HHWkzXmPI7PAfUET9j88RQohpanQ/wqQYEobxoWPxcWhPSHmdMRS8V31gCK73eA5Fo//G5wghhJjOb4SHzsZof0tcS/we4RGHjNLjOP/NLF56NM9cVcL6hz2QpmbwGrE8EBwegqCmRzB6zmZeZ2yPYx2EkPqsEf7c6w3sj1iIqMQSWPmPNHqP41Hdspbj2tAAPlcTlnBoawNZUz5bJx7HOgghjYUJDYQ/2eCY490N0X1erHLykLdEuWMr3pIQQhouEzk9pa8FfMfMxMTeNijcvw7z19d+cLwmp6d6t7ZDaAdPxF/OQ1FZmbbuVedncUp5DWtOH9fWtRu/SFsvRsC0NQjren/snd/5NmZs0pXdh05C6GAvOMgl2nmNMh/HdkZiyfYs7byWzBch00eglwvrTeiaQVWUjM2TV+G6iHUQQho+Y56eamJlbTuPlx8LB7tWyLtUyOdq4xbyU5OQZ9UFfXsHoJvVJRxOvQwNf7YmlEN78dLD5VwvxWssJDZmncH+y/lIZ2EhzMezcvKVIm0bq+0HtI9i3GnaArhaiuYOdrD4Mx2x8WnIOnsOp9L+wJkCFhijFmDuKx4wU59HQvwxpJ8tQFMnD3j69oDXX7sRd0p4x14IW/p/CGL/H/J+34+k9HO4UNIcrVya4+q2vUh5yDoIIY2DzMyCl2quXHWdl3RMMDQEhsHh3SwFcScN35gYNQkNgRASAiczc+0pKWESehpCgAhqEhp/ZqcjJbUJug7xRZuSZHy45Hs2z3fmjsPxwThfWOTvxvz3V2EHq09JTcZvccVw6+sLTwdrnIpJRqH/GxgbZIfbf2zExGXbta9PPrwH2/cdQ86Nmyh80DoIIY2GMUPDpG/uU2uEo20JpGaWuorHQDhNJYRHRYDUBYeB3dBOokHGvk0wuB5LFY/Ec2rW17RDF2E+Twnhzylz8sXAlkIFV1wCJS8SQogxmWhotIDHW1MxvV9bqI5uQHjkaV7/eKhv3dKerqorzpbCOIQEnqM2YEu04TTBS3hOAQehk3RxK7YfvgKN3Ashqzdg7eIpCO5jB5mwEEIIqQMmGBp6gZG6ATNWGeeejZooKruBBanJfK6ulCDjt92I3VXVtAeJ2UIbNeJWTcW4qZGIPZ4P2Hth6LufYu0nw+GuXQYhhBiXiYVGpcD48vEHhkAY04gM6MvnjE95U3hXUmgub0JkVFXTT4i7qGsrUOXHI3LRhxg3/nNEn1RD4jIIIaMe5wXJhJDGwoRCo34ERvKVQu3gt1FZKuDHi4ITh7OhhATufUY9uMcgs4Rc/1yUKh3bDmZCxYoyubOurkKldRBCSG2YyNVTdRMYtbl66nDhZahvaeBmIdfW1fbqKZ1itOv5N7i3VqCtkyUcnhuGF9zjcfjXE1C16wW/Dh4IGuAHNzs7tO/shS5+/fDqyBEY4anE9oRcwH8iVs0fgSAXOzi090QX7x4YMdgXts2uIGntd0gufsA6HuVWGUKISWl0V08phoXpAuN4NMKN2MN4+sZNXhJPCI5BDk587p5nrpbwUk2osTFyOzKUEjh064eBgXaQCd0EVh+3ZDZW/JaFwqft4NOHPTeATT090Op2NuIOpGlfjexMnL8qQSufQN3z/VlglLLexrLZWJOpa1L9OgghpOZM5wsL+/kjbfdeo15KKnw1etHoobhlLe6SXeErQyqLOH0Ch06egiJqO5pnXOC1hBBSfxjzjnAT/BqRJ2fcv1eg3fNefI6FTqkKq14KwbU8ww+VEELqk0b4Lbf1w6b3PkL67oPa8qXTZ/FvNk+BQQhpTKinQQghDRz1NAghhDwRFBqEEEJEo9AghBAiGoUGIYQQ0Sg0CCGEiAT8PxKpY42dlMC0AAAAAElFTkSuQmCC;" vertex="1" parent="1">
                    <mxGeometry x="-30" y="215" width="206.47" height="205.43" as="geometry"/>
                </mxCell>
                <mxCell id="4" value="&lt;font color=&quot;#000000&quot;&gt;&lt;b&gt;Model and Controller - Node.js and Sequelize&lt;/b&gt;&lt;/font&gt;" style="text;html=1;align=center;verticalAlign=middle;resizable=0;points=[];autosize=1;strokeColor=none;fillColor=none;" vertex="1" parent="1">
                    <mxGeometry x="-66.77" y="175" width="280" height="30" as="geometry"/>
                </mxCell>
                <mxCell id="6" value="&lt;font color=&quot;#000000&quot;&gt;&lt;b&gt;View - React.js&lt;/b&gt;&lt;/font&gt;" style="text;html=1;align=center;verticalAlign=middle;resizable=0;points=[];autosize=1;strokeColor=none;fillColor=none;" vertex="1" parent="1">
                    <mxGeometry x="405" y="175" width="110" height="30" as="geometry"/>
                </mxCell>
                <mxCell id="7" value="&lt;font color=&quot;#000000&quot;&gt;Application database is defined in&lt;b&gt;&amp;nbsp;models&lt;/b&gt;&lt;br&gt;Input is accepted via &lt;b&gt;routes &lt;/b&gt;and data is manipulated in &lt;b&gt;controllers&lt;/b&gt;&lt;/font&gt;" style="text;html=1;align=center;verticalAlign=middle;resizable=0;points=[];autosize=1;strokeColor=none;fillColor=none;" vertex="1" parent="1">
                    <mxGeometry x="-116.76999999999998" y="450" width="380" height="40" as="geometry"/>
                </mxCell>
                <mxCell id="9" value="&lt;font color=&quot;#000000&quot;&gt;User Interface (&lt;b&gt;views&lt;/b&gt;) is defined in frontend&lt;/font&gt;" style="text;html=1;align=center;verticalAlign=middle;resizable=0;points=[];autosize=1;strokeColor=none;fillColor=none;" vertex="1" parent="1">
                    <mxGeometry x="330" y="455" width="260" height="30" as="geometry"/>
                </mxCell>
            </root>
        </mxGraphModel>
    </diagram>
</mxfile>